# Blender 4.2.1 LTS
# www.blender.org
mtllib robotiq_arg2f_85_outer_finger.mtl
o robotiq_arg2f_85_outer_finger
v 0.012000 -0.005950 0.000772
v 0.013500 0.003669 0.047643
v 0.012000 0.000165 0.047897
v 0.007075 -0.002076 0.030629
v -0.012000 0.012065 0.046353
v -0.013500 0.002480 -0.000313
v -0.013500 0.008606 0.046917
v -0.012000 0.012114 0.047024
v -0.012000 0.005950 -0.000772
v -0.012000 0.005826 -0.001433
v 0.013500 0.002480 -0.000313
v 0.012000 0.012065 0.046353
v 0.013500 0.008606 0.046917
v 0.012000 0.012114 0.047024
v 0.013500 -0.002500 -0.000000
v 0.013500 -0.002421 0.000622
v 0.012000 0.005826 -0.001433
v 0.012000 0.005950 -0.000772
v 0.013500 0.003875 0.048235
v 0.012000 0.000486 0.049202
v 0.013500 0.004221 0.048757
v 0.012000 0.001089 0.050402
v -0.013500 -0.000157 -0.002495
v -0.013500 0.000468 -0.002456
v -0.012000 0.000571 -0.005973
v -0.013500 -0.002421 -0.000622
v -0.012000 -0.005973 -0.000571
v -0.013500 -0.002500 -0.000000
v -0.012000 -0.005999 0.000101
v -0.013500 -0.002421 0.000622
v -0.012000 -0.005950 0.000772
v -0.007075 -0.002076 0.030629
v -0.012000 0.000165 0.047897
v -0.013500 0.006478 0.049598
v -0.012000 0.006216 0.053124
v -0.012000 0.006887 0.053075
v -0.012000 0.010428 0.051296
v -0.012000 0.010868 0.050786
v -0.013500 0.008073 0.048679
v -0.007500 0.010029 0.030659
v 0.012000 0.010868 0.050786
v 0.012000 0.010428 0.051296
v 0.013500 0.008073 0.048679
v 0.013500 0.007625 0.049117
v 0.012000 0.009934 0.051752
v 0.013500 0.005852 0.049611
v 0.012000 0.006216 0.053124
v 0.012000 0.005543 0.053098
v 0.013500 0.006478 0.049598
v 0.012000 0.006887 0.053075
v 0.012000 0.009392 0.052151
v -0.013500 0.003669 0.047643
v -0.012000 0.004229 0.052821
v -0.012000 0.004878 0.052996
v -0.013500 0.005242 0.049468
v -0.012000 0.009392 0.052151
v -0.013500 0.007082 0.049430
v -0.012000 0.008809 0.052486
v -0.012000 0.008192 0.052754
v -0.012000 0.005543 0.053098
v -0.013500 0.005852 0.049611
v -0.013500 0.004221 0.048757
v -0.012000 0.001944 0.051438
v -0.013500 0.004687 0.049177
v 0.012000 0.000754 0.049819
v 0.012000 0.000289 0.048558
v -0.013500 0.002023 -0.001469
v -0.012000 0.004627 -0.003819
v -0.012000 0.004171 -0.004313
v -0.012000 0.005026 -0.003277
v -0.012000 0.005629 -0.002077
v -0.013500 0.002324 -0.000920
v -0.013500 0.001594 -0.001926
v -0.012000 -0.003819 -0.004627
v -0.013500 -0.001822 -0.001711
v -0.013500 -0.001340 -0.002111
v -0.012000 -0.004313 -0.004171
v 0.012000 0.008192 0.052754
v 0.013500 0.007082 0.049430
v 0.012000 0.008809 0.052486
v -0.012000 0.007548 0.052951
v 0.013500 0.008398 0.048143
v 0.012000 0.011564 0.049637
v 0.012000 0.011248 0.050231
v 0.012000 -0.005999 0.000101
v 0.007500 0.010029 0.030659
v 0.012000 0.004878 0.052996
v 0.013500 0.005242 0.049468
v 0.012000 0.004229 0.052821
v 0.012000 0.003603 0.052574
v 0.013500 0.004687 0.049177
v 0.012000 0.003009 0.052258
v -0.012000 0.003603 0.052574
v -0.012000 0.003009 0.052258
v -0.012000 0.009934 0.051752
v -0.013500 0.007625 0.049117
v 0.012000 0.001944 0.051438
v -0.012000 0.002453 0.051878
v -0.012000 0.005361 -0.002694
v -0.012000 0.003661 -0.004753
v -0.013500 -0.000773 -0.002378
v -0.012000 -0.002694 -0.005361
v -0.012000 -0.003277 -0.005026
v -0.012000 -0.004753 -0.003661
v -0.013500 -0.002191 -0.001204
v -0.012000 -0.005133 -0.003106
v -0.012000 -0.005871 -0.001236
v -0.012000 -0.005696 -0.001886
v -0.012000 -0.005449 -0.002512
v 0.012000 0.007548 0.052951
v -0.013500 0.008398 0.048143
v -0.012000 0.011248 0.050231
v -0.012000 0.011564 0.049637
v 0.013500 0.002324 -0.000920
v 0.012000 0.005629 -0.002077
v 0.013500 0.001594 -0.001926
v 0.013500 0.001064 -0.002262
v 0.012000 0.003106 -0.005133
v -0.012000 0.001236 -0.005871
v 0.013500 -0.002421 -0.000622
v 0.012000 -0.005449 -0.002512
v 0.013500 -0.002191 -0.001204
v 0.012000 -0.005133 -0.003106
v 0.012000 -0.005973 -0.000571
v 0.012000 -0.005871 -0.001236
v 0.012000 -0.001433 -0.005826
v 0.013500 -0.000157 -0.002495
v 0.013500 -0.000773 -0.002378
v 0.012000 -0.002077 -0.005629
v -0.012000 0.011986 0.048361
v -0.012000 0.012088 0.047696
v -0.013500 0.008580 0.047543
v 0.013500 0.008580 0.047543
v 0.012000 0.012088 0.047696
v 0.012000 0.011986 0.048361
v -0.012000 0.000289 0.048558
v -0.012000 0.000486 0.049202
v -0.013500 0.003875 0.048235
v -0.012000 0.001089 0.050402
v 0.012000 0.002453 0.051878
v -0.012000 0.003106 -0.005133
v -0.013500 0.001064 -0.002262
v -0.012000 0.002512 -0.005449
v -0.012000 -0.001433 -0.005826
v -0.012000 -0.000772 -0.005950
v 0.012000 0.004627 -0.003819
v 0.012000 0.005026 -0.003277
v 0.013500 0.002023 -0.001469
v 0.012000 0.004171 -0.004313
v -0.012000 0.001886 -0.005696
v 0.012000 -0.005696 -0.001886
v 0.012000 0.000571 -0.005973
v 0.013500 0.000468 -0.002456
v 0.012000 0.001886 -0.005696
v 0.012000 -0.000772 -0.005950
v 0.012000 0.002512 -0.005449
v 0.013500 -0.001340 -0.002111
v 0.012000 -0.002694 -0.005361
v 0.012000 -0.003277 -0.005026
v 0.013500 -0.001822 -0.001711
v 0.012000 -0.004753 -0.003661
v 0.012000 -0.004313 -0.004171
v 0.012000 -0.003819 -0.004627
v -0.012000 0.011811 0.049011
v 0.012000 0.011811 0.049011
v -0.012000 0.000754 0.049819
v -0.012000 0.001487 0.050944
v 0.012000 0.001487 0.050944
v -0.012000 -0.002077 -0.005629
v 0.012000 0.005361 -0.002694
v 0.012000 0.003661 -0.004753
v 0.012000 0.001236 -0.005871
v 0.012000 -0.000101 -0.005999
v -0.012000 -0.000101 -0.005999
vn 0.5464 -0.8332 0.0848
vn 0.9773 -0.2065 0.0485
vn 0.5461 -0.8275 0.1307
vn -0.0000 -0.9917 0.1287
vn -0.5459 0.8335 -0.0847
vn -0.9782 0.2041 -0.0389
vn -0.9776 0.2104 -0.0093
vn -0.5419 0.8403 -0.0138
vn -0.5460 0.8275 -0.1310
vn -0.5418 0.8162 -0.2009
vn 0.9782 0.2041 -0.0389
vn 0.5459 0.8335 -0.0847
vn 0.9776 0.2104 -0.0093
vn 0.5419 0.8403 -0.0138
vn 0.9768 -0.2142 -0.0001
vn 0.9797 -0.1987 0.0254
vn 0.5418 0.8162 -0.2009
vn 0.5460 0.8275 -0.1310
vn 0.9768 -0.1919 0.0951
vn 0.5418 -0.7886 0.2908
vn 0.9768 -0.1622 0.1399
vn 0.5418 -0.7040 0.4592
vn -0.9768 -0.0136 -0.2139
vn -0.9768 0.0401 -0.2104
vn -0.5418 0.0798 -0.8367
vn -0.9768 -0.2076 -0.0534
vn -0.5418 -0.8367 -0.0802
vn -0.9768 -0.2142 -0.0001
vn -0.5417 -0.8405 0.0142
vn -0.9797 -0.1987 0.0254
vn -0.5464 -0.8332 0.0848
vn -0.5461 -0.8275 0.1307
vn -0.9768 0.0312 0.2119
vn -0.5418 0.0142 0.8404
vn -0.5417 0.1081 0.8336
vn -0.5418 0.6041 0.5844
vn -0.5416 0.6660 0.5129
vn -0.9768 0.1677 0.1332
vn -0.0000 0.9917 -0.1287
vn 0.5416 0.6660 0.5129
vn 0.5418 0.6041 0.5844
vn 0.9768 0.1677 0.1332
vn 0.9768 0.1294 0.1709
vn 0.5417 0.5352 0.6481
vn 0.9768 -0.0226 0.2130
vn 0.5418 0.0142 0.8404
vn 0.5417 -0.0800 0.8368
vn 0.9768 0.0312 0.2119
vn 0.5417 0.1081 0.8336
vn 0.5419 0.4588 0.7042
vn -0.9773 -0.2065 0.0485
vn -0.5417 -0.2641 0.7980
vn -0.5418 -0.1734 0.8224
vn -0.9768 -0.0749 0.2008
vn -0.5419 0.4588 0.7042
vn -0.9768 0.0831 0.1976
vn -0.5419 0.3777 0.7508
vn -0.5418 0.2907 0.7887
vn -0.5417 -0.0800 0.8368
vn -0.9768 -0.0226 0.2130
vn -0.9768 -0.1622 0.1399
vn -0.5418 -0.5841 0.6044
vn -0.9768 -0.1224 0.1760
vn 0.5416 -0.7511 0.3775
vn 0.5417 -0.8162 0.2010
vn -0.9768 0.1734 -0.1260
vn -0.5419 0.6480 -0.5353
vn -0.5419 0.5844 -0.6040
vn -0.5418 0.7042 -0.4589
vn -0.5417 0.7887 -0.2908
vn -0.9768 0.1991 -0.0789
vn -0.9768 0.1367 -0.1650
vn -0.5418 -0.5351 -0.6482
vn -0.9768 -0.1561 -0.1466
vn -0.9768 -0.1147 -0.1808
vn -0.5417 -0.6043 -0.5844
vn 0.5418 0.2907 0.7887
vn 0.9768 0.0831 0.1976
vn 0.5419 0.3777 0.7508
vn -0.5418 0.2010 0.8161
vn 0.9768 0.1956 0.0872
vn 0.5416 0.7634 0.3520
vn 0.5418 0.7191 0.4352
vn 0.5417 -0.8405 0.0142
vn 0.5418 -0.1734 0.8224
vn 0.9768 -0.0749 0.2008
vn 0.5417 -0.2641 0.7980
vn 0.5419 -0.3522 0.7631
vn 0.9768 -0.1224 0.1760
vn 0.5419 -0.4348 0.7192
vn -0.5419 -0.3522 0.7631
vn -0.5419 -0.4348 0.7192
vn -0.5417 0.5352 0.6481
vn -0.9768 0.1294 0.1709
vn 0.5418 -0.5841 0.6044
vn -0.5418 -0.5131 0.6657
vn -0.5418 0.7509 -0.3776
vn -0.5417 0.5128 -0.6660
vn -0.9768 -0.0661 -0.2039
vn -0.5418 -0.3772 -0.7511
vn -0.5417 -0.4592 -0.7041
vn -0.5418 -0.6660 -0.5128
vn -0.9768 -0.1879 -0.1032
vn -0.5417 -0.7190 -0.4353
vn -0.5417 -0.8225 -0.1730
vn -0.5419 -0.7977 -0.2645
vn -0.5419 -0.7634 -0.3515
vn 0.5418 0.2010 0.8161
vn -0.9768 0.1956 0.0872
vn -0.5418 0.7191 0.4352
vn -0.5416 0.7634 0.3520
vn 0.9768 0.1991 -0.0789
vn 0.5417 0.7887 -0.2908
vn 0.9768 0.1367 -0.1650
vn 0.9768 0.0912 -0.1938
vn 0.5418 0.4353 -0.7190
vn -0.5417 0.1733 -0.8225
vn 0.9768 -0.2076 -0.0534
vn 0.5419 -0.7634 -0.3515
vn 0.9768 -0.1879 -0.1032
vn 0.5417 -0.7190 -0.4353
vn 0.5418 -0.8367 -0.0802
vn 0.5418 -0.8225 -0.1730
vn 0.5419 -0.2005 -0.8162
vn 0.9768 -0.0136 -0.2139
vn 0.9768 -0.0661 -0.2039
vn 0.5417 -0.2911 -0.7885
vn -0.5417 0.8225 0.1734
vn -0.5419 0.8367 0.0797
vn -0.9768 0.2113 0.0358
vn 0.9768 0.2113 0.0358
vn 0.5419 0.8367 0.0797
vn 0.5417 0.8225 0.1734
vn -0.5417 -0.8162 0.2010
vn -0.5418 -0.7886 0.2908
vn -0.9768 -0.1919 0.0951
vn -0.5418 -0.7040 0.4592
vn 0.5418 -0.5131 0.6657
vn -0.5418 0.4353 -0.7190
vn -0.9768 0.0912 -0.1938
vn -0.5417 0.3519 -0.7634
vn -0.5419 -0.2005 -0.8162
vn -0.5419 -0.1085 -0.8334
vn 0.5419 0.6480 -0.5353
vn 0.5418 0.7042 -0.4589
vn 0.9768 0.1734 -0.1260
vn 0.5419 0.5844 -0.6040
vn -0.5418 0.2642 -0.7979
vn 0.5419 -0.7977 -0.2645
vn 0.5418 0.0798 -0.8367
vn 0.9768 0.0401 -0.2104
vn 0.5418 0.2642 -0.7979
vn 0.5419 -0.1085 -0.8334
vn 0.5416 0.3519 -0.7634
vn 0.9768 -0.1147 -0.1808
vn 0.5418 -0.3772 -0.7511
vn 0.5417 -0.4592 -0.7041
vn 0.9768 -0.1562 -0.1466
vn 0.5418 -0.6660 -0.5128
vn 0.5417 -0.6043 -0.5844
vn 0.5418 -0.5351 -0.6482
vn -0.5418 0.7980 0.2640
vn 0.5418 0.7980 0.2640
vn -0.5416 -0.7511 0.3775
vn -0.5417 -0.6484 0.5350
vn 0.5417 -0.6484 0.5350
vn -0.5417 -0.2911 -0.7885
vn 0.5418 0.7509 -0.3776
vn 0.5417 0.5128 -0.6660
vn 0.5417 0.1733 -0.8225
vn 0.5418 -0.0139 -0.8404
vn -0.5418 -0.0139 -0.8404
s 1
f 1//1 2//2 3//3
f 3//3 4//4 1//1
f 5//5 6//6 7//7
f 5//5 7//7 8//8
f 6//6 9//9 10//10
f 5//5 9//9 6//6
f 11//11 12//12 13//13
f 13//13 12//12 14//14
f 1//1 15//15 16//16
f 1//1 16//16 2//2
f 17//17 18//18 11//11
f 12//12 11//11 18//18
f 19//19 20//20 2//2
f 19//19 21//21 22//22
f 23//23 24//24 25//25
f 26//26 27//27 28//28
f 28//28 27//27 29//29
f 30//30 28//28 31//31
f 28//28 29//29 31//31
f 31//31 32//4 33//32
f 34//33 35//34 36//35
f 37//36 38//37 39//38
f 9//9 5//5 40//39
f 41//40 42//41 43//42
f 43//42 42//41 44//43
f 44//43 42//41 45//44
f 46//45 47//46 48//47
f 49//48 47//46 46//45
f 50//49 47//46 49//48
f 44//43 45//44 51//50
f 31//31 33//32 52//51
f 31//31 52//51 30//30
f 53//52 54//53 55//54
f 56//55 57//56 58//57
f 58//57 57//56 59//58
f 60//59 61//60 54//53
f 54//53 61//60 55//54
f 35//34 61//60 60//59
f 35//34 34//33 61//60
f 62//61 63//62 64//63
f 22//22 65//64 19//19
f 20//20 19//19 65//64
f 2//2 66//65 3//3
f 20//20 66//65 2//2
f 67//66 68//67 69//68
f 68//67 67//66 70//69
f 71//70 72//71 10//10
f 72//71 6//6 10//10
f 73//72 67//66 69//68
f 74//73 75//74 76//75
f 74//73 77//76 75//74
f 78//77 79//78 80//79
f 51//50 80//79 79//78
f 51//50 79//78 44//43
f 34//33 36//35 81//80
f 34//33 81//80 57//56
f 57//56 81//80 59//58
f 82//81 83//82 84//83
f 82//81 84//83 43//42
f 43//42 84//83 41//40
f 1//1 85//84 15//15
f 18//18 86//39 12//12
f 46//45 48//47 87//85
f 46//45 87//85 88//86
f 88//86 87//85 89//87
f 88//86 89//87 90//88
f 88//86 90//88 91//89
f 91//89 90//88 92//90
f 55//54 93//91 53//52
f 64//63 93//91 55//54
f 94//92 93//91 64//63
f 95//93 96//94 56//55
f 96//94 57//56 56//55
f 37//36 96//94 95//93
f 37//36 39//38 96//94
f 91//89 97//95 21//21
f 64//63 98//96 94//92
f 63//62 98//96 64//63
f 71//70 99//97 72//71
f 72//71 99//97 67//66
f 67//66 99//97 70//69
f 73//72 69//68 100//98
f 76//75 101//99 102//100
f 76//75 103//101 74//73
f 76//75 102//100 103//101
f 77//76 104//102 75//74
f 75//74 104//102 105//103
f 105//103 104//102 106//104
f 107//105 27//27 26//26
f 108//106 107//105 26//26
f 105//103 109//107 26//26
f 109//107 108//106 26//26
f 105//103 106//104 109//107
f 49//48 110//108 50//49
f 79//78 110//108 49//48
f 79//78 78//77 110//108
f 111//109 112//110 113//111
f 39//38 112//110 111//109
f 38//37 112//110 39//38
f 17//17 114//112 115//113
f 17//17 11//11 114//112
f 116//114 117//115 118//116
f 24//24 119//117 25//25
f 120//118 121//119 122//120
f 122//120 121//119 123//121
f 85//84 124//122 15//15
f 15//15 124//122 120//118
f 120//118 124//122 125//123
f 126//124 127//125 128//126
f 129//127 126//124 128//126
f 130//128 131//129 132//130
f 132//130 131//129 7//7
f 7//7 131//129 8//8
f 133//131 134//132 135//133
f 13//13 134//132 133//131
f 13//13 14//14 134//132
f 52//51 33//32 136//134
f 137//135 52//51 136//134
f 137//135 138//136 52//51
f 138//136 139//137 62//61
f 92//90 140//138 91//89
f 97//95 91//89 140//138
f 73//72 141//139 142//140
f 100//98 141//139 73//72
f 141//139 143//141 142//140
f 23//23 144//142 101//99
f 145//143 144//142 23//23
f 146//144 147//145 148//146
f 116//114 149//147 148//146
f 148//146 149//147 146//144
f 142//140 150//148 24//24
f 150//148 119//117 24//24
f 143//141 150//148 142//140
f 120//118 125//123 151//149
f 151//149 121//119 120//118
f 152//150 153//151 127//125
f 154//152 117//115 153//151
f 155//153 127//125 126//124
f 117//115 156//154 118//116
f 154//152 156//154 117//115
f 157//155 158//156 128//126
f 158//156 129//127 128//126
f 157//155 159//157 158//156
f 160//158 161//159 162//160
f 122//120 161//159 160//158
f 122//120 123//121 161//159
f 160//158 163//161 157//155
f 162//160 163//161 160//158
f 157//155 163//161 159//157
f 111//109 113//111 164//162
f 111//109 164//162 132//130
f 164//162 130//128 132//130
f 82//81 165//163 83//82
f 133//131 165//163 82//81
f 135//133 165//163 133//131
f 138//136 166//164 139//137
f 138//136 137//135 166//164
f 139//137 167//165 62//61
f 62//61 167//165 63//62
f 21//21 168//166 22//22
f 97//95 168//166 21//21
f 101//99 169//167 102//100
f 144//142 169//167 101//99
f 114//112 170//168 115//113
f 148//146 170//168 114//112
f 147//145 170//168 148//146
f 116//114 118//116 171//169
f 171//169 149//147 116//114
f 172//170 153//151 152//150
f 153//151 172//170 154//152
f 127//125 173//171 152//150
f 155//153 173//171 127//125
f 23//23 25//25 174//172
f 145//143 23//23 174//172
f 8//8 12//12 5//5
f 14//14 12//12 8//8
f 32//4 4//4 3//3
f 33//32 32//4 3//3
f 17//17 10//10 18//18
f 9//9 18//18 10//10
f 17//17 71//70 10//10
f 71//70 17//17 115//113
f 32//4 31//31 4//4
f 4//4 31//31 1//1
f 58//57 59//58 78//77
f 58//57 78//77 80//79
f 38//37 42//41 41//40
f 38//37 37//36 42//41
f 95//93 42//41 37//36
f 42//41 95//93 45//44
f 48//47 47//46 60//59
f 35//34 60//59 47//46
f 50//49 36//35 47//46
f 35//34 47//46 36//35
f 58//57 80//79 51//50
f 58//57 51//50 56//55
f 95//93 51//50 45//44
f 95//93 56//55 51//50
f 31//31 29//29 85//84
f 31//31 85//84 1//1
f 12//12 86//39 5//5
f 40//39 5//5 86//39
f 18//18 9//9 86//39
f 40//39 86//39 9//9
f 60//59 87//85 48//47
f 54//53 87//85 60//59
f 53//52 89//87 87//85
f 54//53 53//52 87//85
f 92//90 93//91 94//92
f 90//88 93//91 92//90
f 53//52 93//91 89//87
f 93//91 90//88 89//87
f 50//49 110//108 36//35
f 81//80 36//35 110//108
f 78//77 59//58 110//108
f 81//80 110//108 59//58
f 112//110 83//82 113//111
f 112//110 84//83 83//82
f 41//40 112//110 38//37
f 84//83 112//110 41//40
f 123//121 121//119 106//104
f 109//107 106//104 121//119
f 125//123 124//122 107//105
f 107//105 124//122 27//27
f 124//122 85//84 29//29
f 27//27 124//122 29//29
f 135//133 134//132 130//128
f 131//129 130//128 134//132
f 8//8 134//132 14//14
f 131//129 134//132 8//8
f 136//134 66//65 20//20
f 137//135 136//134 20//20
f 33//32 3//3 136//134
f 66//65 136//134 3//3
f 26//26 28//28 138//136
f 7//7 6//6 138//136
f 57//56 138//136 34//33
f 30//30 138//136 28//28
f 72//71 67//66 138//136
f 24//24 23//23 138//136
f 132//130 7//7 138//136
f 73//72 138//136 67//66
f 96//94 138//136 57//56
f 101//99 76//75 138//136
f 64//63 138//136 62//61
f 52//51 138//136 30//30
f 61//60 34//33 138//136
f 24//24 138//136 142//140
f 105//103 26//26 138//136
f 64//63 55//54 138//136
f 111//109 132//130 138//136
f 61//60 138//136 55//54
f 72//71 138//136 6//6
f 73//72 142//140 138//136
f 76//75 75//74 138//136
f 105//103 138//136 75//74
f 111//109 138//136 39//38
f 96//94 39//38 138//136
f 101//99 138//136 23//23
f 94//92 140//138 92//90
f 98//96 140//138 94//92
f 97//95 140//138 63//62
f 63//62 140//138 98//96
f 68//67 70//69 147//145
f 147//145 146//144 68//67
f 146//144 149//147 68//67
f 68//67 149//147 69//68
f 107//105 151//149 125//123
f 107//105 108//106 151//149
f 121//119 151//149 109//107
f 109//107 151//149 108//106
f 16//16 153//151 2//2
f 21//21 19//19 153//151
f 2//2 153//151 19//19
f 46//45 153//151 49//48
f 13//13 153//151 11//11
f 122//120 153//151 120//118
f 16//16 15//15 153//151
f 88//86 153//151 46//45
f 133//131 153//151 13//13
f 157//155 153//151 160//158
f 82//81 153//151 133//131
f 44//43 153//151 43//42
f 21//21 153//151 91//89
f 79//78 153//151 44//43
f 114//112 153//151 148//146
f 82//81 43//42 153//151
f 88//86 91//89 153//151
f 79//78 49//48 153//151
f 116//114 148//146 153//151
f 120//118 153//151 15//15
f 114//112 11//11 153//151
f 116//114 153//151 117//115
f 122//120 160//158 153//151
f 127//125 153//151 128//126
f 157//155 128//126 153//151
f 144//142 155//153 126//124
f 144//142 145//143 155//153
f 150//148 156//154 154//152
f 150//148 143//141 156//154
f 118//116 156//154 141//139
f 141//139 156//154 143//141
f 103//101 158//156 159//157
f 103//101 102//100 158//156
f 162//160 161//159 77//76
f 104//102 77//76 161//159
f 106//104 161//159 123//121
f 104//102 161//159 106//104
f 103//101 163//161 74//73
f 159//157 163//161 103//101
f 77//76 74//73 163//161
f 162//160 77//76 163//161
f 83//82 165//163 113//111
f 164//162 113//111 165//163
f 135//133 130//128 165//163
f 164//162 165//163 130//128
f 20//20 166//164 137//135
f 65//64 166//164 20//20
f 139//137 166//164 22//22
f 65//64 22//22 166//164
f 22//22 168//166 139//137
f 168//166 167//165 139//137
f 63//62 168//166 97//95
f 167//165 168//166 63//62
f 158//156 102//100 169//167
f 158//156 169//167 129//127
f 169//167 144//142 126//124
f 129//127 169//167 126//124
f 170//168 71//70 115//113
f 71//70 170//168 99//97
f 147//145 70//69 170//168
f 99//97 170//168 70//69
f 141//139 100//98 171//169
f 141//139 171//169 118//116
f 149//147 171//169 69//68
f 100//98 69//68 171//169
f 152//150 25//25 172//170
f 119//117 172//170 25//25
f 150//148 154//152 172//170
f 150//148 172//170 119//117
f 152//150 174//172 25//25
f 173//171 174//172 152//150
f 155//153 145//143 174//172
f 173//171 155//153 174//172
