solid 
facet normal 0.27474052 -0.68871856 0.67095786
 outer loop
  vertex 0.012 0.032553498 0.0473539
  vertex 0.0167877 0.0189747 0.0314552
  vertex 0.012 0.0331012 0.047916103
 endloop
endfacet
facet normal 0.0032933117 -0.7599106 0.6500193
 outer loop
  vertex 0.0169466 0.018511599 0.030913003
  vertex 0.0167877 0.0189747 0.0314552
  vertex 0.012 0.032553498 0.0473539
 endloop
endfacet
facet normal -0.91900164 0.39152375 -0.046316337
 outer loop
  vertex -0.012 0.043015502 0.042363804
  vertex -0.0135 0.039564006 0.0429502
  vertex -0.012 0.043107703 0.0431432
 endloop
endfacet
facet normal -0.27474022 -0.68871903 0.6709574
 outer loop
  vertex -0.0167877 0.0189747 0.0314552
  vertex -0.012 0.032553498 0.0473539
  vertex -0.012 0.0331012 0.047916103
 endloop
endfacet
facet normal -0.0032933117 -0.7599106 0.6500193
 outer loop
  vertex -0.012 0.032553498 0.0473539
  vertex -0.0167877 0.0189747 0.0314552
  vertex -0.0169466 0.018511599 0.030913003
 endloop
endfacet
facet normal -2.7978192e-06 -0.76040626 0.6494477
 outer loop
  vertex 0.0151957 0.020535901 0.033283103
  vertex 0.012 0.032553498 0.0473539
  vertex 0.00739096 0.0224038 0.035470102
 endloop
endfacet
facet normal -0.91869843 -0.107232325 0.3801243
 outer loop
  vertex -0.0135 0.0365323 0.045888104
  vertex -0.012 0.0351131 0.049113005
  vertex -0.012 0.035868503 0.049326103
 endloop
endfacet
facet normal -0.91971177 -0.13149707 0.36991727
 outer loop
  vertex -0.0169466 0.018511599 0.030913003
  vertex -0.012 0.0351131 0.049113005
  vertex -0.0135 0.0365323 0.045888104
 endloop
endfacet
facet normal -0.89924836 -0.17267373 0.40191564
 outer loop
  vertex -0.012 0.034392003 0.048803203
  vertex -0.012 0.0351131 0.049113005
  vertex -0.0169466 0.018511599 0.030913003
 endloop
endfacet
facet normal -0.82632023 -0.28791437 0.4840456
 outer loop
  vertex -0.012 0.033717502 0.048402004
  vertex -0.012 0.034392003 0.048803203
  vertex -0.0169466 0.018511599 0.030913003
 endloop
endfacet
facet normal -0.67593324 -0.45071232 0.5830719
 outer loop
  vertex -0.0167877 0.0189747 0.0314552
  vertex -0.012 0.033717502 0.048402004
  vertex -0.0169466 0.018511599 0.030913003
 endloop
endfacet
facet normal -0.6577135 -0.4663724 0.59153163
 outer loop
  vertex -0.0167877 0.0189747 0.0314552
  vertex -0.012 0.0331012 0.047916103
  vertex -0.012 0.033717502 0.048402004
 endloop
endfacet
facet normal 0.67755276 0.6453991 -0.3526787
 outer loop
  vertex 0.0169466 0.0276365 0.0231196
  vertex 0.0167877 0.028099602 0.0236618
  vertex 0.012 0.0425315 0.0408741
 endloop
endfacet
facet normal -0.0033374864 0.75991386 -0.6500152
 outer loop
  vertex 0.0169466 0.0276365 0.0231196
  vertex 0.012 0.0416784 0.0395605
  vertex 0.0167877 0.028099602 0.0236618
 endloop
endfacet
facet normal 0.6577136 0.6572048 -0.3680959
 outer loop
  vertex 0.0167877 0.028099602 0.0236618
  vertex 0.012 0.042148005 0.0401894
  vertex 0.012 0.0425315 0.0408741
 endloop
endfacet
facet normal 0.27470106 0.7704383 -0.57529473
 outer loop
  vertex 0.0167877 0.028099602 0.0236618
  vertex 0.012 0.0416784 0.0395605
  vertex 0.012 0.042148005 0.0401894
 endloop
endfacet
facet normal -0.27470106 0.7704383 -0.57529473
 outer loop
  vertex -0.0167877 0.028099602 0.0236618
  vertex -0.012 0.042148005 0.0401894
  vertex -0.012 0.0416784 0.0395605
 endloop
endfacet
facet normal -0.65771383 0.65720475 -0.36809564
 outer loop
  vertex -0.012 0.042148005 0.0401894
  vertex -0.0167877 0.028099602 0.0236618
  vertex -0.012 0.0425315 0.0408741
 endloop
endfacet
facet normal -0.99595463 0.05835774 0.06832813
 outer loop
  vertex -0.0195 0.009256381 0.00159921
  vertex -0.0195 0.000131506 0.00939259
  vertex -0.0169466 0.018511599 0.030913003
 endloop
endfacet
facet normal -1.5174353e-06 -0.760407 0.64944685
 outer loop
  vertex -0.0151957 0.020535901 0.033283103
  vertex -0.0179756 0.00246592 0.0121258
  vertex -0.0082941 0.0161092 0.028100101
 endloop
endfacet
facet normal 4.6383168e-05 -0.7604057 0.6494484
 outer loop
  vertex 0.0195 0.000131506 0.00939259
  vertex 0.0193223 0.000989514 0.0103972005
  vertex 0.0195 -0.0045624403 0.00389669
 endloop
endfacet
facet normal -0.96614355 -0.028322555 0.25644588
 outer loop
  vertex -0.0135 0.0365323 0.045888104
  vertex -0.0135 0.037155204 0.0459569
  vertex -0.0169466 0.018511599 0.030913003
 endloop
endfacet
facet normal -0.9811956 0.027196543 0.19109066
 outer loop
  vertex -0.0169466 0.018511599 0.030913003
  vertex -0.0135 0.037155204 0.0459569
  vertex -0.0135 0.037775602 0.0458686
 endloop
endfacet
facet normal -0.98957556 0.086479224 0.11515951
 outer loop
  vertex -0.0135 0.0383546 0.0456288
  vertex -0.0135 0.038855698 0.045252502
  vertex -0.0169466 0.018511599 0.030913003
 endloop
endfacet
facet normal -0.98702735 0.06143438 0.14833353
 outer loop
  vertex -0.0135 0.037775602 0.0458686
  vertex -0.0135 0.0383546 0.0456288
  vertex -0.0169466 0.018511599 0.030913003
 endloop
endfacet
facet normal -0.91972965 0.055311892 0.38863608
 outer loop
  vertex -0.0135 0.037155204 0.0459569
  vertex -0.012 0.0382094 0.0493567
  vertex -0.0135 0.037775602 0.0458686
 endloop
endfacet
facet normal -0.91946447 0.23609525 0.31439498
 outer loop
  vertex -0.0135 0.0383546 0.0456288
  vertex -0.012 0.0410126 0.048019603
  vertex -0.0135 0.038855698 0.045252502
 endloop
endfacet
facet normal -0.91938984 0.23536628 0.3151586
 outer loop
  vertex -0.0135 0.0383546 0.0456288
  vertex -0.012 0.0403838 0.0484892
  vertex -0.012 0.0410126 0.048019603
 endloop
endfacet
facet normal 1.8925072e-06 -0.76040477 0.6494494
 outer loop
  vertex -0.00739096 0.0224038 0.035470102
  vertex -0.0151957 0.020535901 0.033283103
  vertex -0.0082941 0.0161092 0.028100101
 endloop
endfacet
facet normal 2.744015e-06 -0.76040626 0.6494477
 outer loop
  vertex -0.0151957 0.020535901 0.033283103
  vertex -0.00739096 0.0224038 0.035470102
  vertex -0.012 0.032553498 0.0473539
 endloop
endfacet
facet normal 4.6383197e-05 0.7604061 -0.6494479
 outer loop
  vertex 0.0193223 0.010114401 0.00260381
  vertex 0.0195 0.009256381 0.00159921
  vertex 0.0195 0.0045624403 -0.00389669
 endloop
endfacet
facet normal 0.00015820081 0.7604141 -0.6494385
 outer loop
  vertex 0.0193223 0.010114401 0.00260381
  vertex 0.0169466 0.0276365 0.0231196
  vertex 0.0195 0.009256381 0.00159921
 endloop
endfacet
facet normal 0.99595463 0.058357745 0.068328135
 outer loop
  vertex 0.0195 0.000131506 0.00939259
  vertex 0.0195 0.009256381 0.00159921
  vertex 0.0169466 0.018511599 0.030913003
 endloop
endfacet
facet normal 0.9959546 0.058357716 0.06832812
 outer loop
  vertex 0.0169466 0.018511599 0.030913003
  vertex 0.0195 0.009256381 0.00159921
  vertex 0.0169466 0.0276365 0.0231196
 endloop
endfacet
facet normal 0.9899413 0.091882855 0.10758102
 outer loop
  vertex 0.0169466 0.0276365 0.0231196
  vertex 0.0135 0.038855698 0.045252502
  vertex 0.0169466 0.018511599 0.030913003
 endloop
endfacet
facet normal 0.9885663 0.1176623 0.094299264
 outer loop
  vertex 0.0135 0.039247602 0.0447635
  vertex 0.0135 0.038855698 0.045252502
  vertex 0.0169466 0.0276365 0.0231196
 endloop
endfacet
facet normal 0.9186242 0.33957627 0.20203345
 outer loop
  vertex 0.0135 0.039247602 0.0447635
  vertex 0.012 0.042462002 0.0461811
  vertex 0.012 0.042060703 0.046855602
 endloop
endfacet
facet normal -0.91920847 0.36179617 0.15543278
 outer loop
  vertex -0.012 0.042771798 0.04546
  vertex -0.0135 0.0395054 0.0441923
  vertex -0.012 0.042462002 0.0461811
 endloop
endfacet
facet normal 3.2116368e-05 -0.76040924 0.6494443
 outer loop
  vertex -0.0151957 0.020535901 0.033283103
  vertex -0.0193223 0.000989514 0.0103972005
  vertex -0.0179756 0.00246592 0.0121258
 endloop
endfacet
facet normal -4.6737237e-05 -0.7604057 0.6494484
 outer loop
  vertex -0.0195 0.000131506 0.00939259
  vertex -0.0195 -0.0045624403 0.00389669
  vertex -0.0193223 0.000989514 0.0103972005
 endloop
endfacet
facet normal -1.8925072e-06 -0.76040477 0.6494494
 outer loop
  vertex 0.00739096 0.0224038 0.035470102
  vertex 0.0082941 0.0161092 0.028100101
  vertex 0.0151957 0.020535901 0.033283103
 endloop
endfacet
facet normal -0.009039666 -0.7609054 0.6487999
 outer loop
  vertex 0.0195 0.000131506 0.00939259
  vertex 0.0169466 0.018511599 0.030913003
  vertex 0.017 0.0180385 0.030358901
 endloop
endfacet
facet normal 0.00020049083 -0.7603934 0.6494627
 outer loop
  vertex 0.0195 0.000131506 0.00939259
  vertex 0.017 0.0180385 0.030358901
  vertex 0.0193223 0.000989514 0.0103972005
 endloop
endfacet
facet normal 6.0104452e-05 -0.76040095 0.649454
 outer loop
  vertex 0.0193223 0.000989514 0.0103972005
  vertex 0.017 0.0180385 0.030358901
  vertex 0.0151957 0.020535901 0.033283103
 endloop
endfacet
facet normal -0.0010099331 -0.7605539 0.6492741
 outer loop
  vertex 0.0169466 0.018511599 0.030913003
  vertex 0.012 0.032553498 0.0473539
  vertex 0.017 0.0180385 0.030358901
 endloop
endfacet
facet normal 6.897213e-05 -0.7603982 0.6494571
 outer loop
  vertex 0.0151957 0.020535901 0.033283103
  vertex 0.017 0.0180385 0.030358901
  vertex 0.012 0.032553498 0.0473539
 endloop
endfacet
facet normal 0.8262867 0.5231622 -0.20869021
 outer loop
  vertex 0.012 0.0428223 0.041603103
  vertex 0.0169466 0.0276365 0.0231196
  vertex 0.012 0.0425315 0.0408741
 endloop
endfacet
facet normal 0.8992444 0.42398554 -0.107682884
 outer loop
  vertex 0.012 0.0428223 0.041603103
  vertex 0.012 0.043015502 0.042363804
  vertex 0.0169466 0.0276365 0.0231196
 endloop
endfacet
facet normal -0.9186354 0.09725859 0.38294882
 outer loop
  vertex -0.012 0.0382094 0.0493567
  vertex -0.012 0.0389701 0.0491635
  vertex -0.0135 0.037775602 0.0458686
 endloop
endfacet
facet normal -0.91915274 0.04632657 0.39116767
 outer loop
  vertex -0.0135 0.037155204 0.0459569
  vertex -0.012 0.037430003 0.049449004
  vertex -0.012 0.0382094 0.0493567
 endloop
endfacet
facet normal 0.9186354 0.09725859 0.38294882
 outer loop
  vertex 0.0135 0.037775602 0.0458686
  vertex 0.012 0.0389701 0.0491635
  vertex 0.012 0.0382094 0.0493567
 endloop
endfacet
facet normal 0.6577135 -0.4663724 0.59153163
 outer loop
  vertex 0.0167877 0.0189747 0.0314552
  vertex 0.012 0.033717502 0.048402004
  vertex 0.012 0.0331012 0.047916103
 endloop
endfacet
facet normal 0.6759557 -0.45070264 0.5830533
 outer loop
  vertex 0.012 0.033717502 0.048402004
  vertex 0.0167877 0.0189747 0.0314552
  vertex 0.0169466 0.018511599 0.030913003
 endloop
endfacet
facet normal 0.9190499 -0.056546986 0.39006382
 outer loop
  vertex 0.012 0.035868503 0.049326103
  vertex 0.0135 0.0365323 0.045888104
  vertex 0.012 0.0366452 0.0494387
 endloop
endfacet
facet normal 0.82632023 -0.28791437 0.4840456
 outer loop
  vertex 0.012 0.034392003 0.048803203
  vertex 0.012 0.033717502 0.048402004
  vertex 0.0169466 0.018511599 0.030913003
 endloop
endfacet
facet normal -4.6383197e-05 0.7604061 -0.6494479
 outer loop
  vertex -0.0195 0.009256381 0.00159921
  vertex -0.0193223 0.010114401 0.00260381
  vertex -0.0195 0.0045624403 -0.00389669
 endloop
endfacet
facet normal 4.177419e-06 0.7604072 -0.6494466
 outer loop
  vertex 0.0082941 0.0252341 0.0203067
  vertex 0.0131548 0.0304682 0.0264351
  vertex 0.0193223 0.010114401 0.00260381
 endloop
endfacet
facet normal 4.748058e-07 0.76040673 -0.6494471
 outer loop
  vertex 0.0193223 0.010114401 0.00260381
  vertex 0.0131548 0.0304682 0.0264351
  vertex 0.0169466 0.0276365 0.0231196
 endloop
endfacet
facet normal 9.835767e-06 0.760405 -0.6494491
 outer loop
  vertex 0.012 0.0416784 0.0395605
  vertex 0.0131548 0.0304682 0.0264351
  vertex 0.0082941 0.0252341 0.0203067
 endloop
endfacet
facet normal -3.6129627e-06 0.7604044 -0.6494499
 outer loop
  vertex 0.0169466 0.0276365 0.0231196
  vertex 0.0131548 0.0304682 0.0264351
  vertex 0.012 0.0416784 0.0395605
 endloop
endfacet
facet normal 1.0458336e-05 0.760407 -0.64944696
 outer loop
  vertex -0.012 0.0416784 0.0395605
  vertex -0.00656274 0.030597003 0.026585901
  vertex -0.0082941 0.0252341 0.0203067
 endloop
endfacet
facet normal 0.9847164 0.15874651 0.07164615
 outer loop
  vertex 0.0135 0.0395054 0.0441923
  vertex 0.0135 0.039247602 0.0447635
  vertex 0.0169466 0.0276365 0.0231196
 endloop
endfacet
facet normal 0.9756061 0.21625565 0.037764866
 outer loop
  vertex 0.0135 0.0396132 0.043575004
  vertex 0.0135 0.0395054 0.0441923
  vertex 0.0169466 0.0276365 0.0231196
 endloop
endfacet
facet normal 0.9197804 0.3865833 0.06750929
 outer loop
  vertex 0.012 0.042984802 0.0447047
  vertex 0.0135 0.0395054 0.0441923
  vertex 0.0135 0.0396132 0.043575004
 endloop
endfacet
facet normal 0.91967154 0.35792342 0.16153952
 outer loop
  vertex 0.0135 0.039247602 0.0447635
  vertex 0.0135 0.0395054 0.0441923
  vertex 0.012 0.042462002 0.0461811
 endloop
endfacet
facet normal 0.9191602 0.38705117 -0.07304755
 outer loop
  vertex 0.012 0.043015502 0.042363804
  vertex 0.0135 0.039564006 0.0429502
  vertex 0.0169466 0.0276365 0.0231196
 endloop
endfacet
facet normal 0.94863194 0.31540582 -0.02483281
 outer loop
  vertex 0.0169466 0.0276365 0.0231196
  vertex 0.0135 0.039564006 0.0429502
  vertex 0.0135 0.0396132 0.043575004
 endloop
endfacet
facet normal 0.91900164 0.39152375 -0.046316344
 outer loop
  vertex 0.012 0.043015502 0.042363804
  vertex 0.012 0.043107703 0.0431432
  vertex 0.0135 0.039564006 0.0429502
 endloop
endfacet
facet normal 0.9198583 0.39104068 -0.030787759
 outer loop
  vertex 0.0135 0.0396132 0.043575004
  vertex 0.0135 0.039564006 0.0429502
  vertex 0.012 0.043107703 0.0431432
 endloop
endfacet
facet normal 0.9190995 0.3899418 0.0565818
 outer loop
  vertex 0.0135 0.0396132 0.043575004
  vertex 0.012 0.043097503 0.043928005
  vertex 0.012 0.042984802 0.0447047
 endloop
endfacet
facet normal 0.91867846 0.3949728 0.0051334086
 outer loop
  vertex 0.012 0.043097503 0.043928005
  vertex 0.0135 0.0396132 0.043575004
  vertex 0.012 0.043107703 0.0431432
 endloop
endfacet
facet normal 0.98702735 0.06143438 0.14833353
 outer loop
  vertex 0.0135 0.0383546 0.0456288
  vertex 0.0135 0.037775602 0.0458686
  vertex 0.0169466 0.018511599 0.030913003
 endloop
endfacet
facet normal 0.98957556 0.086479224 0.11515951
 outer loop
  vertex 0.0135 0.038855698 0.045252502
  vertex 0.0135 0.0383546 0.0456288
  vertex 0.0169466 0.018511599 0.030913003
 endloop
endfacet
facet normal 0.91938984 0.23536628 0.3151586
 outer loop
  vertex 0.0135 0.0383546 0.0456288
  vertex 0.012 0.0410126 0.048019603
  vertex 0.012 0.0403838 0.0484892
 endloop
endfacet
facet normal 0.91946447 0.23609525 0.31439498
 outer loop
  vertex 0.0135 0.038855698 0.045252502
  vertex 0.012 0.0410126 0.048019603
  vertex 0.0135 0.0383546 0.0456288
 endloop
endfacet
facet normal 0.91932344 0.3090326 0.24360469
 outer loop
  vertex 0.0135 0.039247602 0.0447635
  vertex 0.012 0.042060703 0.046855602
  vertex 0.012 0.041574802 0.047472008
 endloop
endfacet
facet normal 0.91954327 0.30665728 0.24576735
 outer loop
  vertex 0.012 0.041574802 0.047472008
  vertex 0.0135 0.038855698 0.045252502
  vertex 0.0135 0.039247602 0.0447635
 endloop
endfacet
facet normal 0.9186199 0.27570656 0.2830609
 outer loop
  vertex 0.012 0.041574802 0.047472008
  vertex 0.012 0.0410126 0.048019603
  vertex 0.0135 0.038855698 0.045252502
 endloop
endfacet
facet normal 0.91864824 0.380245 0.107234254
 outer loop
  vertex 0.012 0.042771798 0.04546
  vertex 0.0135 0.0395054 0.0441923
  vertex 0.012 0.042984802 0.0447047
 endloop
endfacet
facet normal 0.9192084 0.36179623 0.1554328
 outer loop
  vertex 0.0135 0.0395054 0.0441923
  vertex 0.012 0.042771798 0.04546
  vertex 0.012 0.042462002 0.0461811
 endloop
endfacet
facet normal -0.91867846 0.3949728 0.0051334086
 outer loop
  vertex -0.012 0.043107703 0.0431432
  vertex -0.0135 0.0396132 0.043575004
  vertex -0.012 0.043097503 0.043928005
 endloop
endfacet
facet normal -0.9198583 0.39104062 -0.030787755
 outer loop
  vertex -0.0135 0.039564006 0.0429502
  vertex -0.0135 0.0396132 0.043575004
  vertex -0.012 0.043107703 0.0431432
 endloop
endfacet
facet normal -0.9186242 0.33957627 0.20203345
 outer loop
  vertex -0.0135 0.039247602 0.0447635
  vertex -0.012 0.042060703 0.046855602
  vertex -0.012 0.042462002 0.0461811
 endloop
endfacet
facet normal -0.91967154 0.35792342 0.16153952
 outer loop
  vertex -0.0135 0.0395054 0.0441923
  vertex -0.0135 0.039247602 0.0447635
  vertex -0.012 0.042462002 0.0461811
 endloop
endfacet
facet normal 0.009039666 -0.76090574 0.64879954
 outer loop
  vertex -0.0195 0.000131506 0.00939259
  vertex -0.017 0.0180385 0.030358901
  vertex -0.0169466 0.018511599 0.030913003
 endloop
endfacet
facet normal -0.00020049083 -0.7603934 0.6494627
 outer loop
  vertex -0.0193223 0.000989514 0.0103972005
  vertex -0.017 0.0180385 0.030358901
  vertex -0.0195 0.000131506 0.00939259
 endloop
endfacet
facet normal -6.0577717e-05 -0.76040095 0.649454
 outer loop
  vertex -0.017 0.0180385 0.030358901
  vertex -0.0193223 0.000989514 0.0103972005
  vertex -0.0151957 0.020535901 0.033283103
 endloop
endfacet
facet normal 0.0010077059 -0.7605542 0.64927363
 outer loop
  vertex -0.012 0.032553498 0.0473539
  vertex -0.0169466 0.018511599 0.030913003
  vertex -0.017 0.0180385 0.030358901
 endloop
endfacet
facet normal -6.897212e-05 -0.76039815 0.6494572
 outer loop
  vertex -0.0151957 0.020535901 0.033283103
  vertex -0.012 0.032553498 0.0473539
  vertex -0.017 0.0180385 0.030358901
 endloop
endfacet
facet normal -3.176602e-05 -0.7604091 0.64944434
 outer loop
  vertex 0.0193223 0.000989514 0.0103972005
  vertex 0.0151957 0.020535901 0.033283103
  vertex 0.0179756 0.00246592 0.0121258
 endloop
endfacet
facet normal 1.5174353e-06 -0.760407 0.64944685
 outer loop
  vertex 0.0082941 0.0161092 0.028100101
  vertex 0.0179756 0.00246592 0.0121258
  vertex 0.0151957 0.020535901 0.033283103
 endloop
endfacet
facet normal -0.91864824 0.380245 0.10723431
 outer loop
  vertex -0.0135 0.0395054 0.0441923
  vertex -0.012 0.042771798 0.04546
  vertex -0.012 0.042984802 0.0447047
 endloop
endfacet
facet normal -0.9197804 0.3865833 0.06750912
 outer loop
  vertex -0.0135 0.0395054 0.0441923
  vertex -0.012 0.042984802 0.0447047
  vertex -0.0135 0.0396132 0.043575004
 endloop
endfacet
facet normal -0.91909945 0.38994175 0.05658179
 outer loop
  vertex -0.0135 0.0396132 0.043575004
  vertex -0.012 0.042984802 0.0447047
  vertex -0.012 0.043097503 0.043928005
 endloop
endfacet
facet normal -0.9186208 0.19307193 0.3447594
 outer loop
  vertex -0.0135 0.0383546 0.0456288
  vertex -0.012 0.039699003 0.0488727
  vertex -0.012 0.0403838 0.0484892
 endloop
endfacet
facet normal -0.91960984 0.15031527 0.36293676
 outer loop
  vertex -0.0135 0.037775602 0.0458686
  vertex -0.012 0.039699003 0.0488727
  vertex -0.0135 0.0383546 0.0456288
 endloop
endfacet
facet normal -0.9192657 0.14586432 0.36561468
 outer loop
  vertex -0.012 0.0389701 0.0491635
  vertex -0.012 0.039699003 0.0488727
  vertex -0.0135 0.037775602 0.0458686
 endloop
endfacet
facet normal -0.918662 -0.0051863305 0.39501047
 outer loop
  vertex -0.0135 0.037155204 0.0459569
  vertex -0.012 0.0366452 0.0494387
  vertex -0.012 0.037430003 0.049449004
 endloop
endfacet
facet normal -0.9190499 -0.056546986 0.39006382
 outer loop
  vertex -0.012 0.0366452 0.0494387
  vertex -0.0135 0.0365323 0.045888104
  vertex -0.012 0.035868503 0.049326103
 endloop
endfacet
facet normal -0.9198232 -0.04306842 0.38996196
 outer loop
  vertex -0.012 0.0366452 0.0494387
  vertex -0.0135 0.037155204 0.0459569
  vertex -0.0135 0.0365323 0.045888104
 endloop
endfacet
facet normal -0.9186199 0.27570656 0.2830609
 outer loop
  vertex -0.012 0.0410126 0.048019603
  vertex -0.012 0.041574802 0.047472008
  vertex -0.0135 0.038855698 0.045252502
 endloop
endfacet
facet normal -0.9195432 0.3066572 0.24576746
 outer loop
  vertex -0.0135 0.038855698 0.045252502
  vertex -0.012 0.041574802 0.047472008
  vertex -0.0135 0.039247602 0.0447635
 endloop
endfacet
facet normal -0.91932344 0.3090326 0.24360469
 outer loop
  vertex -0.0135 0.039247602 0.0447635
  vertex -0.012 0.041574802 0.047472008
  vertex -0.012 0.042060703 0.046855602
 endloop
endfacet
facet normal 0.9186208 0.19307195 0.3447594
 outer loop
  vertex 0.0135 0.0383546 0.0456288
  vertex 0.012 0.0403838 0.0484892
  vertex 0.012 0.039699003 0.0488727
 endloop
endfacet
facet normal 0.9192657 0.14586432 0.36561468
 outer loop
  vertex 0.0135 0.037775602 0.0458686
  vertex 0.012 0.039699003 0.0488727
  vertex 0.012 0.0389701 0.0491635
 endloop
endfacet
facet normal 0.91960984 0.15031527 0.36293676
 outer loop
  vertex 0.0135 0.0383546 0.0456288
  vertex 0.012 0.039699003 0.0488727
  vertex 0.0135 0.037775602 0.0458686
 endloop
endfacet
facet normal 0.918662 -0.0051863305 0.39501047
 outer loop
  vertex 0.012 0.037430003 0.049449004
  vertex 0.012 0.0366452 0.0494387
  vertex 0.0135 0.037155204 0.0459569
 endloop
endfacet
facet normal 0.9198232 -0.04306842 0.38996196
 outer loop
  vertex 0.0135 0.0365323 0.045888104
  vertex 0.0135 0.037155204 0.0459569
  vertex 0.012 0.0366452 0.0494387
 endloop
endfacet
facet normal 0.91915274 0.0463267 0.39116764
 outer loop
  vertex 0.012 0.037430003 0.049449004
  vertex 0.0135 0.037155204 0.0459569
  vertex 0.012 0.0382094 0.0493567
 endloop
endfacet
facet normal 0.9197296 0.055311747 0.38863608
 outer loop
  vertex 0.012 0.0382094 0.0493567
  vertex 0.0135 0.037155204 0.0459569
  vertex 0.0135 0.037775602 0.0458686
 endloop
endfacet
facet normal 0.9811956 0.027196543 0.19109066
 outer loop
  vertex 0.0135 0.037775602 0.0458686
  vertex 0.0135 0.037155204 0.0459569
  vertex 0.0169466 0.018511599 0.030913003
 endloop
endfacet
facet normal 0.96614355 -0.028322555 0.25644588
 outer loop
  vertex 0.0169466 0.018511599 0.030913003
  vertex 0.0135 0.037155204 0.0459569
  vertex 0.0135 0.0365323 0.045888104
 endloop
endfacet
facet normal 0.91869843 -0.107232325 0.3801243
 outer loop
  vertex 0.0135 0.0365323 0.045888104
  vertex 0.012 0.035868503 0.049326103
  vertex 0.012 0.0351131 0.049113005
 endloop
endfacet
facet normal 0.91971177 -0.13149707 0.36991727
 outer loop
  vertex 0.0135 0.0365323 0.045888104
  vertex 0.012 0.0351131 0.049113005
  vertex 0.0169466 0.018511599 0.030913003
 endloop
endfacet
facet normal 0.89924836 -0.17267372 0.4019156
 outer loop
  vertex 0.012 0.0351131 0.049113005
  vertex 0.012 0.034392003 0.048803203
  vertex 0.0169466 0.018511599 0.030913003
 endloop
endfacet
facet normal -0.0001549046 0.76041555 -0.6494367
 outer loop
  vertex -0.0193223 0.010114401 0.00260381
  vertex -0.0195 0.009256381 0.00159921
  vertex -0.0169466 0.0276365 0.0231196
 endloop
endfacet
facet normal -0.9959546 0.058357738 0.06832813
 outer loop
  vertex -0.0169466 0.018511599 0.030913003
  vertex -0.0169466 0.0276365 0.0231196
  vertex -0.0195 0.009256381 0.00159921
 endloop
endfacet
facet normal -0.9899413 0.09188287 0.107581005
 outer loop
  vertex -0.0135 0.038855698 0.045252502
  vertex -0.0169466 0.0276365 0.0231196
  vertex -0.0169466 0.018511599 0.030913003
 endloop
endfacet
facet normal 0.0033524435 0.7599021 -0.6500289
 outer loop
  vertex -0.0169466 0.0276365 0.0231196
  vertex -0.0167877 0.028099602 0.0236618
  vertex -0.012 0.0416784 0.0395605
 endloop
endfacet
facet normal -0.9885662 0.11766234 0.09429933
 outer loop
  vertex -0.0135 0.039247602 0.0447635
  vertex -0.0169466 0.0276365 0.0231196
  vertex -0.0135 0.038855698 0.045252502
 endloop
endfacet
facet normal -0.9847164 0.15874651 0.07164615
 outer loop
  vertex -0.0135 0.039247602 0.0447635
  vertex -0.0135 0.0395054 0.0441923
  vertex -0.0169466 0.0276365 0.0231196
 endloop
endfacet
facet normal -0.9756061 0.21625598 0.037764978
 outer loop
  vertex -0.0135 0.0396132 0.043575004
  vertex -0.0169466 0.0276365 0.0231196
  vertex -0.0135 0.0395054 0.0441923
 endloop
endfacet
facet normal -0.94863194 0.31540582 -0.02483281
 outer loop
  vertex -0.0135 0.0396132 0.043575004
  vertex -0.0135 0.039564006 0.0429502
  vertex -0.0169466 0.0276365 0.0231196
 endloop
endfacet
facet normal -0.9191602 0.38705114 -0.07304754
 outer loop
  vertex -0.0135 0.039564006 0.0429502
  vertex -0.012 0.043015502 0.042363804
  vertex -0.0169466 0.0276365 0.0231196
 endloop
endfacet
facet normal -0.89924383 0.4239868 -0.107683286
 outer loop
  vertex -0.012 0.0428223 0.041603103
  vertex -0.0169466 0.0276365 0.0231196
  vertex -0.012 0.043015502 0.042363804
 endloop
endfacet
facet normal -0.8262869 0.523162 -0.20869002
 outer loop
  vertex -0.012 0.0428223 0.041603103
  vertex -0.012 0.0425315 0.0408741
  vertex -0.0169466 0.0276365 0.0231196
 endloop
endfacet
facet normal -0.67755246 0.64539886 -0.3526796
 outer loop
  vertex -0.0167877 0.028099602 0.0236618
  vertex -0.0169466 0.0276365 0.0231196
  vertex -0.012 0.0425315 0.0408741
 endloop
endfacet
facet normal -1.0458336e-05 0.760407 -0.64944696
 outer loop
  vertex 0.0082941 0.0252341 0.0203067
  vertex 0.00656274 0.030597003 0.026585901
  vertex 0.012 0.0416784 0.0395605
 endloop
endfacet
facet normal -4.177419e-06 0.7604072 -0.6494466
 outer loop
  vertex -0.0193223 0.010114401 0.00260381
  vertex -0.0131548 0.0304682 0.0264351
  vertex -0.0082941 0.0252341 0.0203067
 endloop
endfacet
facet normal -4.748058e-07 0.76040673 -0.6494471
 outer loop
  vertex -0.0169466 0.0276365 0.0231196
  vertex -0.0131548 0.0304682 0.0264351
  vertex -0.0193223 0.010114401 0.00260381
 endloop
endfacet
facet normal -9.835767e-06 0.760405 -0.6494491
 outer loop
  vertex -0.0082941 0.0252341 0.0203067
  vertex -0.0131548 0.0304682 0.0264351
  vertex -0.012 0.0416784 0.0395605
 endloop
endfacet
facet normal 3.612963e-06 0.7604044 -0.6494498
 outer loop
  vertex -0.0131548 0.0304682 0.0264351
  vertex -0.0169466 0.0276365 0.0231196
  vertex -0.012 0.0416784 0.0395605
 endloop
endfacet
facet normal 0 0.013098752 -0.99991417
 outer loop
  vertex 0.0195 -0.000314016 -0.00599178
  vertex -0.0195 -0.000314016 -0.00599178
  vertex 0.0195 0.00047075504 -0.0059815
 endloop
endfacet
facet normal 0 0.013098752 -0.99991417
 outer loop
  vertex 0.0195 0.00047075504 -0.0059815
  vertex -0.0195 -0.000314016 -0.00599178
  vertex -0.0195 0.00047075504 -0.0059815
 endloop
endfacet
facet normal 0 0.14348216 -0.9896529
 outer loop
  vertex 0.0195 0.00047075504 -0.0059815
  vertex -0.0195 0.00124747 -0.00586889
  vertex 0.0195 0.00124747 -0.00586889
 endloop
endfacet
facet normal 0 0.14348216 -0.9896529
 outer loop
  vertex 0.0195 0.00047075504 -0.0059815
  vertex -0.0195 0.00047075504 -0.0059815
  vertex -0.0195 0.00124747 -0.00586889
 endloop
endfacet
facet normal 0 -0.71628267 0.69781023
 outer loop
  vertex 0.012 0.0331012 0.047916103
  vertex -0.012 0.032553498 0.0473539
  vertex 0.012 0.032553498 0.0473539
 endloop
endfacet
facet normal 0 -0.71628267 0.69781023
 outer loop
  vertex -0.012 0.0331012 0.047916103
  vertex -0.012 0.032553498 0.0473539
  vertex 0.012 0.0331012 0.047916103
 endloop
endfacet
facet normal 0 0.71629673 -0.69779587
 outer loop
  vertex -0.0195 0.0045624403 -0.00389669
  vertex 0.0195 0.0040147803 -0.0044588703
  vertex -0.0195 0.0040147803 -0.0044588703
 endloop
endfacet
facet normal 0 0.71629673 -0.69779587
 outer loop
  vertex -0.0195 0.0045624403 -0.00389669
  vertex 0.0195 0.0045624403 -0.00389669
  vertex 0.0195 0.0040147803 -0.0044588703
 endloop
endfacet
facet normal 0 0.5112883 -0.8594092
 outer loop
  vertex 0.0195 0.00272394 -0.0053460402
  vertex -0.0195 0.00339844 -0.00494476
  vertex 0.0195 0.00339844 -0.00494476
 endloop
endfacet
facet normal 0 0.5112883 -0.8594092
 outer loop
  vertex 0.0195 0.00272394 -0.0053460402
  vertex -0.0195 0.00272394 -0.0053460402
  vertex -0.0195 0.00339844 -0.00494476
 endloop
endfacet
facet normal 0 0.6190988 -0.78531307
 outer loop
  vertex 0.0195 0.0040147803 -0.0044588703
  vertex -0.0195 0.00339844 -0.00494476
  vertex -0.0195 0.0040147803 -0.0044588703
 endloop
endfacet
facet normal 0 0.6190988 -0.78531307
 outer loop
  vertex 0.0195 0.00339844 -0.00494476
  vertex -0.0195 0.00339844 -0.00494476
  vertex 0.0195 0.0040147803 -0.0044588703
 endloop
endfacet
facet normal 0 0.27144417 -0.9624542
 outer loop
  vertex 0.0195 0.00124747 -0.00586889
  vertex -0.0195 0.0020028402 -0.0056558503
  vertex 0.0195 0.0020028402 -0.0056558503
 endloop
endfacet
facet normal 0 0.27144417 -0.9624542
 outer loop
  vertex -0.0195 0.00124747 -0.00586889
  vertex -0.0195 0.0020028402 -0.0056558503
  vertex 0.0195 0.00124747 -0.00586889
 endloop
endfacet
facet normal 0 0.39474502 -0.9187907
 outer loop
  vertex 0.0195 0.0020028402 -0.0056558503
  vertex -0.0195 0.0020028402 -0.0056558503
  vertex 0.0195 0.00272394 -0.0053460402
 endloop
endfacet
facet normal 0 0.39474502 -0.9187907
 outer loop
  vertex 0.0195 0.00272394 -0.0053460402
  vertex -0.0195 0.0020028402 -0.0056558503
  vertex -0.0195 0.00272394 -0.0053460402
 endloop
endfacet
facet normal 0 -0.9187907 -0.39474502
 outer loop
  vertex 0.0195 -0.0053460402 -0.00272394
  vertex 0.0195 -0.0056558503 -0.0020028402
  vertex -0.0195 -0.0056558503 -0.0020028402
 endloop
endfacet
facet normal -0 -0.9187907 -0.39474502
 outer loop
  vertex -0.0195 -0.0053460402 -0.00272394
  vertex 0.0195 -0.0053460402 -0.00272394
  vertex -0.0195 -0.0056558503 -0.0020028402
 endloop
endfacet
facet normal 0 0.8724714 -0.48866525
 outer loop
  vertex -0.012 0.0425315 0.0408741
  vertex 0.012 0.0425315 0.0408741
  vertex 0.012 0.042148005 0.0401894
 endloop
endfacet
facet normal 0 0.8724714 -0.48866525
 outer loop
  vertex -0.012 0.042148005 0.0401894
  vertex -0.012 0.0425315 0.0408741
  vertex 0.012 0.042148005 0.0401894
 endloop
endfacet
facet normal 0 0.8012632 -0.5983121
 outer loop
  vertex -0.012 0.0416784 0.0395605
  vertex 0.012 0.042148005 0.0401894
  vertex 0.012 0.0416784 0.0395605
 endloop
endfacet
facet normal 0 0.8012632 -0.5983121
 outer loop
  vertex -0.012 0.042148005 0.0401894
  vertex 0.012 0.042148005 0.0401894
  vertex -0.012 0.0416784 0.0395605
 endloop
endfacet
facet normal -0 -0.37055805 -0.9288093
 outer loop
  vertex -0.0195 -0.0018541 -0.00570634
  vertex 0.0195 -0.0018541 -0.00570634
  vertex -0.0195 -0.0025830702 -0.00541551
 endloop
endfacet
facet normal 0 -0.37055805 -0.9288093
 outer loop
  vertex 0.0195 -0.0018541 -0.00570634
  vertex 0.0195 -0.0025830702 -0.00541551
  vertex -0.0195 -0.0025830702 -0.00541551
 endloop
endfacet
facet normal -0 -0.69779587 -0.71629673
 outer loop
  vertex -0.0195 -0.00389669 -0.0045624403
  vertex 0.0195 -0.00389669 -0.0045624403
  vertex -0.0195 -0.0044588703 -0.0040147803
 endloop
endfacet
facet normal 0 -0.69779587 -0.71629673
 outer loop
  vertex 0.0195 -0.00389669 -0.0045624403
  vertex 0.0195 -0.0044588703 -0.0040147803
  vertex -0.0195 -0.0044588703 -0.0040147803
 endloop
endfacet
facet normal 0 -0.9930681 0.117540486
 outer loop
  vertex 0.0195 -0.0058995304 0.0010934101
  vertex -0.0195 -0.00599178 0.000314016
  vertex 0.0195 -0.00599178 0.000314016
 endloop
endfacet
facet normal 0 -0.9930681 0.117540486
 outer loop
  vertex -0.0195 -0.0058995304 0.0010934101
  vertex -0.0195 -0.00599178 0.000314016
  vertex 0.0195 -0.0058995304 0.0010934101
 endloop
endfacet
facet normal 0 -0.99991417 -0.013098752
 outer loop
  vertex 0.0195 -0.0059815 -0.00047075504
  vertex -0.0195 -0.00599178 0.000314016
  vertex -0.0195 -0.0059815 -0.00047075504
 endloop
endfacet
facet normal 0 -0.99991417 -0.013098752
 outer loop
  vertex 0.0195 -0.00599178 0.000314016
  vertex -0.0195 -0.00599178 0.000314016
  vertex 0.0195 -0.0059815 -0.00047075504
 endloop
endfacet
facet normal 0 -0.9624542 -0.27144417
 outer loop
  vertex 0.0195 -0.0056558503 -0.0020028402
  vertex -0.0195 -0.00586889 -0.00124747
  vertex -0.0195 -0.0056558503 -0.0020028402
 endloop
endfacet
facet normal 0 -0.9624542 -0.27144417
 outer loop
  vertex 0.0195 -0.00586889 -0.00124747
  vertex -0.0195 -0.00586889 -0.00124747
  vertex 0.0195 -0.0056558503 -0.0020028402
 endloop
endfacet
facet normal 0 -0.9896529 -0.14348216
 outer loop
  vertex 0.0195 -0.0059815 -0.00047075504
  vertex -0.0195 -0.0059815 -0.00047075504
  vertex -0.0195 -0.00586889 -0.00124747
 endloop
endfacet
facet normal -0 -0.9896529 -0.14348216
 outer loop
  vertex 0.0195 -0.0059815 -0.00047075504
  vertex -0.0195 -0.00586889 -0.00124747
  vertex 0.0195 -0.00586889 -0.00124747
 endloop
endfacet
facet normal 0 0.99307543 -0.117478505
 outer loop
  vertex -0.012 0.043015502 0.042363804
  vertex -0.012 0.043107703 0.0431432
  vertex 0.012 0.043015502 0.042363804
 endloop
endfacet
facet normal 0 0.99307543 -0.117478505
 outer loop
  vertex 0.012 0.043107703 0.0431432
  vertex 0.012 0.043015502 0.042363804
  vertex -0.012 0.043107703 0.0431432
 endloop
endfacet
facet normal 0 -0.8012612 0.59831464
 outer loop
  vertex 0.0195 -0.0045624403 0.00389669
  vertex -0.0195 -0.00503202 0.00326783
  vertex 0.0195 -0.00503202 0.00326783
 endloop
endfacet
facet normal 0 -0.8012612 0.59831464
 outer loop
  vertex -0.0195 -0.0045624403 0.00389669
  vertex -0.0195 -0.00503202 0.00326783
  vertex 0.0195 -0.0045624403 0.00389669
 endloop
endfacet
facet normal 0 -0.87249285 0.48862693
 outer loop
  vertex 0.0195 -0.00503202 0.00326783
  vertex -0.0195 -0.00503202 0.00326783
  vertex 0.0195 -0.00541551 0.0025830702
 endloop
endfacet
facet normal 0 -0.87249285 0.48862693
 outer loop
  vertex -0.0195 -0.00503202 0.00326783
  vertex -0.0195 -0.00541551 0.0025830702
  vertex 0.0195 -0.00541551 0.0025830702
 endloop
endfacet
facet normal 0 -0.9288093 0.37055805
 outer loop
  vertex 0.0195 -0.00541551 0.0025830702
  vertex -0.0195 -0.00570634 0.0018541
  vertex 0.0195 -0.00570634 0.0018541
 endloop
endfacet
facet normal 0 -0.9288093 0.37055805
 outer loop
  vertex -0.0195 -0.00541551 0.0025830702
  vertex -0.0195 -0.00570634 0.0018541
  vertex 0.0195 -0.00541551 0.0025830702
 endloop
endfacet
facet normal 0 -0.969231 0.24615286
 outer loop
  vertex 0.0195 -0.00570634 0.0018541
  vertex -0.0195 -0.00570634 0.0018541
  vertex 0.0195 -0.0058995304 0.0010934101
 endloop
endfacet
facet normal 0 -0.969231 0.24615286
 outer loop
  vertex -0.0195 -0.00570634 0.0018541
  vertex -0.0195 -0.0058995304 0.0010934101
  vertex 0.0195 -0.0058995304 0.0010934101
 endloop
endfacet
facet normal 0 -0.76040685 0.6494471
 outer loop
  vertex -0.012 0.032553498 0.0473539
  vertex -0.00739096 0.0224038 0.035470102
  vertex 0.012 0.032553498 0.0473539
 endloop
endfacet
facet normal 0 -0.76040685 0.649447
 outer loop
  vertex 0.00739096 0.0224038 0.035470102
  vertex 0.012 0.032553498 0.0473539
  vertex -0.00739096 0.0224038 0.035470102
 endloop
endfacet
facet normal 0 0.85939884 0.5113058
 outer loop
  vertex 0.012 0.042060703 0.046855602
  vertex 0.012 0.042462002 0.0461811
  vertex -0.012 0.042060703 0.046855602
 endloop
endfacet
facet normal -0 0.85939884 0.5113058
 outer loop
  vertex -0.012 0.042060703 0.046855602
  vertex 0.012 0.042462002 0.0461811
  vertex -0.012 0.042462002 0.0461811
 endloop
endfacet
facet normal 0 -0.7604063 0.6494476
 outer loop
  vertex -0.0195 -0.0045624403 0.00389669
  vertex 0.0195 -0.0045624403 0.00389669
  vertex -0.0193223 0.000989514 0.0103972005
 endloop
endfacet
facet normal 0 -0.7604063 0.6494477
 outer loop
  vertex 0.0193223 0.000989514 0.0103972005
  vertex -0.0193223 0.000989514 0.0103972005
  vertex 0.0195 -0.0045624403 0.00389669
 endloop
endfacet
facet normal 0 -0.117540486 -0.9930681
 outer loop
  vertex -0.0195 -0.000314016 -0.00599178
  vertex 0.0195 -0.0010934101 -0.0058995304
  vertex -0.0195 -0.0010934101 -0.0058995304
 endloop
endfacet
facet normal -0 -0.117540486 -0.9930681
 outer loop
  vertex -0.0195 -0.000314016 -0.00599178
  vertex 0.0195 -0.000314016 -0.00599178
  vertex 0.0195 -0.0010934101 -0.0058995304
 endloop
endfacet
facet normal -0 -0.24615286 -0.969231
 outer loop
  vertex -0.0195 -0.0018541 -0.00570634
  vertex -0.0195 -0.0010934101 -0.0058995304
  vertex 0.0195 -0.0010934101 -0.0058995304
 endloop
endfacet
facet normal 0 -0.24615286 -0.969231
 outer loop
  vertex 0.0195 -0.0010934101 -0.0058995304
  vertex 0.0195 -0.0018541 -0.00570634
  vertex -0.0195 -0.0018541 -0.00570634
 endloop
endfacet
facet normal 0 -0.48862693 -0.87249285
 outer loop
  vertex 0.0195 -0.0025830702 -0.00541551
  vertex 0.0195 -0.00326783 -0.00503202
  vertex -0.0195 -0.0025830702 -0.00541551
 endloop
endfacet
facet normal 0 -0.48862693 -0.87249285
 outer loop
  vertex -0.0195 -0.0025830702 -0.00541551
  vertex 0.0195 -0.00326783 -0.00503202
  vertex -0.0195 -0.00326783 -0.00503202
 endloop
endfacet
facet normal -0 -0.59831464 -0.8012612
 outer loop
  vertex -0.0195 -0.00326783 -0.00503202
  vertex 0.0195 -0.00326783 -0.00503202
  vertex -0.0195 -0.00389669 -0.0045624403
 endloop
endfacet
facet normal 0 -0.59831464 -0.8012612
 outer loop
  vertex 0.0195 -0.00326783 -0.00503202
  vertex 0.0195 -0.00389669 -0.0045624403
  vertex -0.0195 -0.00389669 -0.0045624403
 endloop
endfacet
facet normal -1 -0 -0
 outer loop
  vertex -0.0195 0.00339844 -0.00494476
  vertex -0.0195 -0.00494476 -0.00339844
  vertex -0.0195 0.0040147803 -0.0044588703
 endloop
endfacet
facet normal -1 -0 -0
 outer loop
  vertex -0.0195 -0.0018541 -0.00570634
  vertex -0.0195 -0.00494476 -0.00339844
  vertex -0.0195 -0.0010934101 -0.0058995304
 endloop
endfacet
facet normal -1 0 0
 outer loop
  vertex -0.0195 -0.00494476 -0.00339844
  vertex -0.0195 -0.000314016 -0.00599178
  vertex -0.0195 -0.0010934101 -0.0058995304
 endloop
endfacet
facet normal -1 0 0
 outer loop
  vertex -0.0195 -0.00494476 -0.00339844
  vertex -0.0195 -0.00326783 -0.00503202
  vertex -0.0195 -0.00389669 -0.0045624403
 endloop
endfacet
facet normal -1 0 0
 outer loop
  vertex -0.0195 -0.00503202 0.00326783
  vertex -0.0195 -0.00494476 -0.00339844
  vertex -0.0195 -0.00541551 0.0025830702
 endloop
endfacet
facet normal -1 0 -0
 outer loop
  vertex -0.0195 0.009256381 0.00159921
  vertex -0.0195 -0.00494476 -0.00339844
  vertex -0.0195 0.000131506 0.00939259
 endloop
endfacet
facet normal -1 -0 -0
 outer loop
  vertex -0.0195 -0.000314016 -0.00599178
  vertex -0.0195 -0.00494476 -0.00339844
  vertex -0.0195 0.00047075504 -0.0059815
 endloop
endfacet
facet normal -1 0 0
 outer loop
  vertex -0.0195 -0.00389669 -0.0045624403
  vertex -0.0195 -0.0044588703 -0.0040147803
  vertex -0.0195 -0.00494476 -0.00339844
 endloop
endfacet
facet normal -1 0 0
 outer loop
  vertex -0.0195 -0.00494476 -0.00339844
  vertex -0.0195 0.0020028402 -0.0056558503
  vertex -0.0195 0.00124747 -0.00586889
 endloop
endfacet
facet normal -1 -0 -0
 outer loop
  vertex -0.0195 0.0040147803 -0.0044588703
  vertex -0.0195 -0.00494476 -0.00339844
  vertex -0.0195 0.0045624403 -0.00389669
 endloop
endfacet
facet normal -1 0 0
 outer loop
  vertex -0.0195 -0.00494476 -0.00339844
  vertex -0.0195 0.00124747 -0.00586889
  vertex -0.0195 0.00047075504 -0.0059815
 endloop
endfacet
facet normal -1 0 0
 outer loop
  vertex -0.0195 -0.00494476 -0.00339844
  vertex -0.0195 -0.0018541 -0.00570634
  vertex -0.0195 -0.0025830702 -0.00541551
 endloop
endfacet
facet normal -1 -0 -0
 outer loop
  vertex -0.0195 -0.00326783 -0.00503202
  vertex -0.0195 -0.00494476 -0.00339844
  vertex -0.0195 -0.0025830702 -0.00541551
 endloop
endfacet
facet normal -1 0 0
 outer loop
  vertex -0.0195 -0.00494476 -0.00339844
  vertex -0.0195 -0.0053460402 -0.00272394
  vertex -0.0195 -0.0056558503 -0.0020028402
 endloop
endfacet
facet normal -1 0 0
 outer loop
  vertex -0.0195 -0.00494476 -0.00339844
  vertex -0.0195 0.00339844 -0.00494476
  vertex -0.0195 0.00272394 -0.0053460402
 endloop
endfacet
facet normal -1 -0 -0
 outer loop
  vertex -0.0195 0.0020028402 -0.0056558503
  vertex -0.0195 -0.00494476 -0.00339844
  vertex -0.0195 0.00272394 -0.0053460402
 endloop
endfacet
facet normal -1 0 -0
 outer loop
  vertex -0.0195 0.0045624403 -0.00389669
  vertex -0.0195 -0.00494476 -0.00339844
  vertex -0.0195 0.009256381 0.00159921
 endloop
endfacet
facet normal -1 -0 0
 outer loop
  vertex -0.0195 -0.00570634 0.0018541
  vertex -0.0195 -0.00541551 0.0025830702
  vertex -0.0195 -0.00494476 -0.00339844
 endloop
endfacet
facet normal -1 0 0
 outer loop
  vertex -0.0195 -0.00599178 0.000314016
  vertex -0.0195 -0.00494476 -0.00339844
  vertex -0.0195 -0.0059815 -0.00047075504
 endloop
endfacet
facet normal -1 -0 -0
 outer loop
  vertex -0.0195 -0.00586889 -0.00124747
  vertex -0.0195 -0.0059815 -0.00047075504
  vertex -0.0195 -0.00494476 -0.00339844
 endloop
endfacet
facet normal -1 0 -0
 outer loop
  vertex -0.0195 0.000131506 0.00939259
  vertex -0.0195 -0.00494476 -0.00339844
  vertex -0.0195 -0.0045624403 0.00389669
 endloop
endfacet
facet normal -1 -0 0
 outer loop
  vertex -0.0195 -0.00599178 0.000314016
  vertex -0.0195 -0.0058995304 0.0010934101
  vertex -0.0195 -0.00494476 -0.00339844
 endloop
endfacet
facet normal -1 0 0
 outer loop
  vertex -0.0195 -0.00586889 -0.00124747
  vertex -0.0195 -0.00494476 -0.00339844
  vertex -0.0195 -0.0056558503 -0.0020028402
 endloop
endfacet
facet normal -1 -0 0
 outer loop
  vertex -0.0195 -0.00503202 0.00326783
  vertex -0.0195 -0.0045624403 0.00389669
  vertex -0.0195 -0.00494476 -0.00339844
 endloop
endfacet
facet normal -1 0 0
 outer loop
  vertex -0.0195 -0.00570634 0.0018541
  vertex -0.0195 -0.00494476 -0.00339844
  vertex -0.0195 -0.0058995304 0.0010934101
 endloop
endfacet
facet normal 1 0 0
 outer loop
  vertex 0.0195 0.00272394 -0.0053460402
  vertex 0.0195 0.00339844 -0.00494476
  vertex 0.0195 -0.00494476 -0.00339844
 endloop
endfacet
facet normal 1 0 0
 outer loop
  vertex 0.0195 0.00047075504 -0.0059815
  vertex 0.0195 0.00124747 -0.00586889
  vertex 0.0195 -0.00494476 -0.00339844
 endloop
endfacet
facet normal 1 0 0
 outer loop
  vertex 0.0195 0.00124747 -0.00586889
  vertex 0.0195 0.0020028402 -0.0056558503
  vertex 0.0195 -0.00494476 -0.00339844
 endloop
endfacet
facet normal 1 0 0
 outer loop
  vertex 0.0195 -0.0058995304 0.0010934101
  vertex 0.0195 -0.00494476 -0.00339844
  vertex 0.0195 -0.00570634 0.0018541
 endloop
endfacet
facet normal 1 0 -0
 outer loop
  vertex 0.0195 -0.0045624403 0.00389669
  vertex 0.0195 -0.00503202 0.00326783
  vertex 0.0195 -0.00494476 -0.00339844
 endloop
endfacet
facet normal 1 0 0
 outer loop
  vertex 0.0195 -0.00586889 -0.00124747
  vertex 0.0195 -0.0056558503 -0.0020028402
  vertex 0.0195 -0.00494476 -0.00339844
 endloop
endfacet
facet normal 1 0 -0
 outer loop
  vertex 0.0195 -0.00541551 0.0025830702
  vertex 0.0195 -0.00570634 0.0018541
  vertex 0.0195 -0.00494476 -0.00339844
 endloop
endfacet
facet normal 1 -0 -0
 outer loop
  vertex 0.0195 0.00047075504 -0.0059815
  vertex 0.0195 -0.00494476 -0.00339844
  vertex 0.0195 -0.000314016 -0.00599178
 endloop
endfacet
facet normal 1 0 0
 outer loop
  vertex 0.0195 0.000131506 0.00939259
  vertex 0.0195 -0.0045624403 0.00389669
  vertex 0.0195 -0.00494476 -0.00339844
 endloop
endfacet
facet normal 1 -0 -0
 outer loop
  vertex 0.0195 0.0040147803 -0.0044588703
  vertex 0.0195 -0.00494476 -0.00339844
  vertex 0.0195 0.00339844 -0.00494476
 endloop
endfacet
facet normal 1 0 -0
 outer loop
  vertex 0.0195 -0.0058995304 0.0010934101
  vertex 0.0195 -0.00599178 0.000314016
  vertex 0.0195 -0.00494476 -0.00339844
 endloop
endfacet
facet normal 1 -0 -0
 outer loop
  vertex 0.0195 0.00272394 -0.0053460402
  vertex 0.0195 -0.00494476 -0.00339844
  vertex 0.0195 0.0020028402 -0.0056558503
 endloop
endfacet
facet normal 1 -0 -0
 outer loop
  vertex 0.0195 -0.0018541 -0.00570634
  vertex 0.0195 -0.00494476 -0.00339844
  vertex 0.0195 -0.0025830702 -0.00541551
 endloop
endfacet
facet normal 1 0 0
 outer loop
  vertex 0.0195 -0.00541551 0.0025830702
  vertex 0.0195 -0.00494476 -0.00339844
  vertex 0.0195 -0.00503202 0.00326783
 endloop
endfacet
facet normal 1 0 0
 outer loop
  vertex 0.0195 -0.0059815 -0.00047075504
  vertex 0.0195 -0.00586889 -0.00124747
  vertex 0.0195 -0.00494476 -0.00339844
 endloop
endfacet
facet normal 1 0 0
 outer loop
  vertex 0.0195 0.0040147803 -0.0044588703
  vertex 0.0195 0.0045624403 -0.00389669
  vertex 0.0195 -0.00494476 -0.00339844
 endloop
endfacet
facet normal 1 0 0
 outer loop
  vertex 0.0195 -0.0053460402 -0.00272394
  vertex 0.0195 -0.00494476 -0.00339844
  vertex 0.0195 -0.0056558503 -0.0020028402
 endloop
endfacet
facet normal 1 -0 -0
 outer loop
  vertex 0.0195 -0.0010934101 -0.0058995304
  vertex 0.0195 -0.00494476 -0.00339844
  vertex 0.0195 -0.0018541 -0.00570634
 endloop
endfacet
facet normal 1 -0 -0
 outer loop
  vertex 0.0195 -0.00326783 -0.00503202
  vertex 0.0195 -0.00494476 -0.00339844
  vertex 0.0195 -0.00389669 -0.0045624403
 endloop
endfacet
facet normal 1 0 0
 outer loop
  vertex 0.0195 -0.00494476 -0.00339844
  vertex 0.0195 0.009256381 0.00159921
  vertex 0.0195 0.000131506 0.00939259
 endloop
endfacet
facet normal 1 -0 -0
 outer loop
  vertex 0.0195 -0.00389669 -0.0045624403
  vertex 0.0195 -0.00494476 -0.00339844
  vertex 0.0195 -0.0044588703 -0.0040147803
 endloop
endfacet
facet normal 1 0 0
 outer loop
  vertex 0.0195 -0.0059815 -0.00047075504
  vertex 0.0195 -0.00494476 -0.00339844
  vertex 0.0195 -0.00599178 0.000314016
 endloop
endfacet
facet normal 1 0 -0
 outer loop
  vertex 0.0195 0.009256381 0.00159921
  vertex 0.0195 -0.00494476 -0.00339844
  vertex 0.0195 0.0045624403 -0.00389669
 endloop
endfacet
facet normal 1 0 0
 outer loop
  vertex 0.0195 -0.0010934101 -0.0058995304
  vertex 0.0195 -0.000314016 -0.00599178
  vertex 0.0195 -0.00494476 -0.00339844
 endloop
endfacet
facet normal 1 0 0
 outer loop
  vertex 0.0195 -0.00326783 -0.00503202
  vertex 0.0195 -0.0025830702 -0.00541551
  vertex 0.0195 -0.00494476 -0.00339844
 endloop
endfacet
facet normal 0 -0.78531307 -0.6190988
 outer loop
  vertex 0.0195 -0.0044588703 -0.0040147803
  vertex 0.0195 -0.00494476 -0.00339844
  vertex -0.0195 -0.0044588703 -0.0040147803
 endloop
endfacet
facet normal 0 -0.78531307 -0.6190988
 outer loop
  vertex -0.0195 -0.00494476 -0.00339844
  vertex -0.0195 -0.0044588703 -0.0040147803
  vertex 0.0195 -0.00494476 -0.00339844
 endloop
endfacet
facet normal 0 -0.8594092 -0.5112883
 outer loop
  vertex 0.0195 -0.0053460402 -0.00272394
  vertex -0.0195 -0.0053460402 -0.00272394
  vertex 0.0195 -0.00494476 -0.00339844
 endloop
endfacet
facet normal -0 -0.8594092 -0.5112883
 outer loop
  vertex -0.0195 -0.00494476 -0.00339844
  vertex 0.0195 -0.00494476 -0.00339844
  vertex -0.0195 -0.0053460402 -0.00272394
 endloop
endfacet
facet normal 0 -0.7604047 0.64944965
 outer loop
  vertex -0.00739096 0.0224038 0.035470102
  vertex 0.0082941 0.0161092 0.028100101
  vertex 0.00739096 0.0224038 0.035470102
 endloop
endfacet
facet normal 0 -0.76040465 0.6494496
 outer loop
  vertex 0.0082941 0.0161092 0.028100101
  vertex -0.00739096 0.0224038 0.035470102
  vertex -0.0082941 0.0161092 0.028100101
 endloop
endfacet
facet normal 0 0.9288281 -0.37051076
 outer loop
  vertex -0.012 0.0425315 0.0408741
  vertex 0.012 0.0428223 0.041603103
  vertex 0.012 0.0425315 0.0408741
 endloop
endfacet
facet normal 0 0.9288281 -0.37051076
 outer loop
  vertex -0.012 0.0428223 0.041603103
  vertex 0.012 0.0428223 0.041603103
  vertex -0.012 0.0425315 0.0408741
 endloop
endfacet
facet normal 0 0.96922857 -0.24616247
 outer loop
  vertex -0.012 0.043015502 0.042363804
  vertex 0.012 0.0428223 0.041603103
  vertex -0.012 0.0428223 0.041603103
 endloop
endfacet
facet normal 0 0.96922857 -0.24616247
 outer loop
  vertex 0.012 0.043015502 0.042363804
  vertex 0.012 0.0428223 0.041603103
  vertex -0.012 0.043015502 0.042363804
 endloop
endfacet
facet normal 0 0.11760957 0.99305993
 outer loop
  vertex -0.012 0.037430003 0.049449004
  vertex 0.012 0.037430003 0.049449004
  vertex -0.012 0.0382094 0.0493567
 endloop
endfacet
facet normal -0 0.11760957 0.99305993
 outer loop
  vertex 0.012 0.037430003 0.049449004
  vertex 0.012 0.0382094 0.0493567
  vertex -0.012 0.0382094 0.0493567
 endloop
endfacet
facet normal 0 0.24615805 0.96922976
 outer loop
  vertex 0.012 0.0382094 0.0493567
  vertex 0.012 0.0389701 0.0491635
  vertex -0.012 0.0382094 0.0493567
 endloop
endfacet
facet normal 0 0.24615805 0.96922976
 outer loop
  vertex -0.012 0.0389701 0.0491635
  vertex -0.012 0.0382094 0.0493567
  vertex 0.012 0.0389701 0.0491635
 endloop
endfacet
facet normal 0 -0.619132 0.78528696
 outer loop
  vertex -0.012 0.0331012 0.047916103
  vertex 0.012 0.0331012 0.047916103
  vertex 0.012 0.033717502 0.048402004
 endloop
endfacet
facet normal 0 -0.619132 0.78528696
 outer loop
  vertex -0.012 0.033717502 0.048402004
  vertex -0.012 0.0331012 0.047916103
  vertex 0.012 0.033717502 0.048402004
 endloop
endfacet
facet normal 0 -0.5112111 0.8594551
 outer loop
  vertex 0.012 0.033717502 0.048402004
  vertex 0.012 0.034392003 0.048803203
  vertex -0.012 0.033717502 0.048402004
 endloop
endfacet
facet normal 0 -0.5112111 0.8594551
 outer loop
  vertex -0.012 0.033717502 0.048402004
  vertex 0.012 0.034392003 0.048803203
  vertex -0.012 0.034392003 0.048803203
 endloop
endfacet
facet normal 0 0.7604054 -0.64944863
 outer loop
  vertex -0.0195 0.0045624403 -0.00389669
  vertex -0.0193223 0.010114401 0.00260381
  vertex 0.0195 0.0045624403 -0.00389669
 endloop
endfacet
facet normal 0 0.7604055 -0.6494486
 outer loop
  vertex 0.0195 0.0045624403 -0.00389669
  vertex -0.0193223 0.010114401 0.00260381
  vertex 0.0193223 0.010114401 0.00260381
 endloop
endfacet
facet normal 0 0.7604059 -0.64944816
 outer loop
  vertex 0.0082941 0.0252341 0.0203067
  vertex -0.0193223 0.010114401 0.00260381
  vertex -0.0082941 0.0252341 0.0203067
 endloop
endfacet
facet normal 0 0.76040596 -0.6494481
 outer loop
  vertex 0.0193223 0.010114401 0.00260381
  vertex -0.0193223 0.010114401 0.00260381
  vertex 0.0082941 0.0252341 0.0203067
 endloop
endfacet
facet normal 0 0.9999155 0.012995592
 outer loop
  vertex -0.012 0.043107703 0.0431432
  vertex 0.012 0.043097503 0.043928005
  vertex 0.012 0.043107703 0.0431432
 endloop
endfacet
facet normal 0 0.9999155 0.012995592
 outer loop
  vertex -0.012 0.043097503 0.043928005
  vertex 0.012 0.043097503 0.043928005
  vertex -0.012 0.043107703 0.0431432
 endloop
endfacet
facet normal 0 0.5983674 0.8012219
 outer loop
  vertex 0.012 0.0403838 0.0484892
  vertex 0.012 0.0410126 0.048019603
  vertex -0.012 0.0403838 0.0484892
 endloop
endfacet
facet normal -0 0.5983674 0.8012219
 outer loop
  vertex 0.012 0.0410126 0.048019603
  vertex -0.012 0.0410126 0.048019603
  vertex -0.012 0.0403838 0.0484892
 endloop
endfacet
facet normal 0 0.91879773 0.39472857
 outer loop
  vertex 0.012 0.042462002 0.0461811
  vertex 0.012 0.042771798 0.04546
  vertex -0.012 0.042462002 0.0461811
 endloop
endfacet
facet normal 0 0.91879773 0.39472857
 outer loop
  vertex -0.012 0.042771798 0.04546
  vertex -0.012 0.042462002 0.0461811
  vertex 0.012 0.042771798 0.04546
 endloop
endfacet
facet normal 0 -0.76039684 0.64945877
 outer loop
  vertex 0.0193223 0.000989514 0.0103972005
  vertex 0.0179756 0.00246592 0.0121258
  vertex -0.0193223 0.000989514 0.0103972005
 endloop
endfacet
facet normal 0 -0.76039684 0.6494588
 outer loop
  vertex -0.0193223 0.000989514 0.0103972005
  vertex 0.0179756 0.00246592 0.0121258
  vertex -0.0179756 0.00246592 0.0121258
 endloop
endfacet
facet normal 0 -0.76040745 0.6494463
 outer loop
  vertex 0.0179756 0.00246592 0.0121258
  vertex 0.0082941 0.0161092 0.028100101
  vertex -0.0082941 0.0161092 0.028100101
 endloop
endfacet
facet normal 0 -0.7604075 0.6494463
 outer loop
  vertex -0.0179756 0.00246592 0.0121258
  vertex 0.0179756 0.00246592 0.0121258
  vertex -0.0082941 0.0161092 0.028100101
 endloop
endfacet
facet normal 0 0.9624591 0.27142665
 outer loop
  vertex -0.012 0.042984802 0.0447047
  vertex 0.012 0.042771798 0.04546
  vertex 0.012 0.042984802 0.0447047
 endloop
endfacet
facet normal 0 0.9624591 0.27142665
 outer loop
  vertex 0.012 0.042771798 0.04546
  vertex -0.012 0.042984802 0.0447047
  vertex -0.012 0.042771798 0.04546
 endloop
endfacet
facet normal -0 0.9896359 0.14359933
 outer loop
  vertex -0.012 0.042984802 0.0447047
  vertex 0.012 0.043097503 0.043928005
  vertex -0.012 0.043097503 0.043928005
 endloop
endfacet
facet normal 0 0.9896359 0.14359933
 outer loop
  vertex 0.012 0.043097503 0.043928005
  vertex -0.012 0.042984802 0.0447047
  vertex 0.012 0.042984802 0.0447047
 endloop
endfacet
facet normal 0 -0.14346917 0.98965484
 outer loop
  vertex 0.012 0.035868503 0.049326103
  vertex -0.012 0.0366452 0.0494387
  vertex -0.012 0.035868503 0.049326103
 endloop
endfacet
facet normal 0 -0.14346917 0.98965484
 outer loop
  vertex 0.012 0.035868503 0.049326103
  vertex 0.012 0.0366452 0.0494387
  vertex -0.012 0.0366452 0.0494387
 endloop
endfacet
facet normal 0 -0.013128471 0.9999139
 outer loop
  vertex -0.012 0.037430003 0.049449004
  vertex -0.012 0.0366452 0.0494387
  vertex 0.012 0.037430003 0.049449004
 endloop
endfacet
facet normal 0 -0.013128471 0.9999139
 outer loop
  vertex 0.012 0.037430003 0.049449004
  vertex -0.012 0.0366452 0.0494387
  vertex 0.012 0.0366452 0.0494387
 endloop
endfacet
facet normal 0 0.6977396 0.7163515
 outer loop
  vertex 0.012 0.0410126 0.048019603
  vertex -0.012 0.041574802 0.047472008
  vertex -0.012 0.0410126 0.048019603
 endloop
endfacet
facet normal -0 0.6977396 0.7163515
 outer loop
  vertex 0.012 0.041574802 0.047472008
  vertex -0.012 0.041574802 0.047472008
  vertex 0.012 0.0410126 0.048019603
 endloop
endfacet
facet normal -0 0.7853379 0.6190674
 outer loop
  vertex 0.012 0.042060703 0.046855602
  vertex -0.012 0.042060703 0.046855602
  vertex -0.012 0.041574802 0.047472008
 endloop
endfacet
facet normal 0 0.7853379 0.6190674
 outer loop
  vertex 0.012 0.041574802 0.047472008
  vertex 0.012 0.042060703 0.046855602
  vertex -0.012 0.041574802 0.047472008
 endloop
endfacet
facet normal 0 0.48861626 0.8724988
 outer loop
  vertex -0.012 0.0403838 0.0484892
  vertex 0.012 0.039699003 0.0488727
  vertex 0.012 0.0403838 0.0484892
 endloop
endfacet
facet normal 0 0.48861626 0.8724988
 outer loop
  vertex -0.012 0.039699003 0.0488727
  vertex 0.012 0.039699003 0.0488727
  vertex -0.012 0.0403838 0.0484892
 endloop
endfacet
facet normal 0 0.3705549 0.9288106
 outer loop
  vertex 0.012 0.0389701 0.0491635
  vertex 0.012 0.039699003 0.0488727
  vertex -0.012 0.0389701 0.0491635
 endloop
endfacet
facet normal 0 0.3705549 0.9288106
 outer loop
  vertex -0.012 0.039699003 0.0488727
  vertex -0.012 0.0389701 0.0491635
  vertex 0.012 0.039699003 0.0488727
 endloop
endfacet
facet normal 0 -0.27150187 0.96243787
 outer loop
  vertex 0.012 0.035868503 0.049326103
  vertex -0.012 0.035868503 0.049326103
  vertex 0.012 0.0351131 0.049113005
 endloop
endfacet
facet normal 0 -0.27150187 0.96243787
 outer loop
  vertex -0.012 0.0351131 0.049113005
  vertex 0.012 0.0351131 0.049113005
  vertex -0.012 0.035868503 0.049326103
 endloop
endfacet
facet normal 0 -0.39473835 0.9187935
 outer loop
  vertex -0.012 0.0351131 0.049113005
  vertex -0.012 0.034392003 0.048803203
  vertex 0.012 0.0351131 0.049113005
 endloop
endfacet
facet normal 0 -0.39473835 0.9187935
 outer loop
  vertex 0.012 0.034392003 0.048803203
  vertex 0.012 0.0351131 0.049113005
  vertex -0.012 0.034392003 0.048803203
 endloop
endfacet
facet normal 0 0.7604048 -0.64944947
 outer loop
  vertex 0.012 0.0416784 0.0395605
  vertex 0.00656274 0.030597003 0.026585901
  vertex -0.012 0.0416784 0.0395605
 endloop
endfacet
facet normal 0 0.76040477 -0.6494494
 outer loop
  vertex -0.012 0.0416784 0.0395605
  vertex 0.00656274 0.030597003 0.026585901
  vertex -0.00656274 0.030597003 0.026585901
 endloop
endfacet
facet normal 0 0.7604083 -0.64944524
 outer loop
  vertex 0.0082941 0.0252341 0.0203067
  vertex -0.0082941 0.0252341 0.0203067
  vertex 0.00656274 0.030597003 0.026585901
 endloop
endfacet
facet normal 0 0.7604084 -0.64944524
 outer loop
  vertex -0.00656274 0.030597003 0.026585901
  vertex 0.00656274 0.030597003 0.026585901
  vertex -0.0082941 0.0252341 0.0203067
 endloop
endfacet
endsolid 
