# Blender 4.2.1 LTS
# www.blender.org
mtllib robotiq_arg2f_85_inner_finger.mtl
o robotiq_arg2f_85_inner_finger
v -0.007000 -0.013903 0.044515
v -0.007500 -0.017990 0.011514
v -0.007000 -0.018903 0.044515
v 0.007500 0.004460 0.002260
v 0.007000 0.005563 0.002248
v 0.007000 -0.013903 0.044515
v 0.007000 -0.018903 0.044515
v 0.007500 -0.017628 0.011507
v 0.007500 -0.022870 0.007078
v 0.007000 -0.023902 0.013514
v -0.007500 -0.020575 0.002289
v -0.007000 -0.020625 0.001169
v -0.007000 -0.021256 0.001540
v -0.007000 -0.002052 -0.005638
v -0.007500 -0.019528 0.001787
v -0.007500 -0.001627 -0.004728
v -0.007000 -0.019953 0.000876
v 0.007500 -0.016484 0.011310
v 0.007500 -0.015937 0.011113
v 0.007500 0.001964 0.004598
v 0.007500 -0.017051 0.011442
v -0.007000 -0.001451 -0.005822
v 0.007000 -0.002052 -0.005638
v 0.007500 -0.019866 0.001917
v 0.007000 -0.019953 0.000876
v 0.007500 -0.022901 0.006497
v -0.007000 -0.023901 0.006514
v -0.007000 -0.023902 0.013514
v -0.007500 -0.022897 0.006717
v -0.007000 0.005985 0.000419
v -0.007500 0.004986 0.000379
v -0.007000 0.005909 0.001042
v -0.007500 0.004764 0.001519
v -0.007000 0.005563 0.002248
v -0.007000 0.005768 0.001654
v -0.007500 0.004555 0.002061
v -0.007500 0.001627 0.004728
v -0.007500 -0.016275 0.011243
v -0.007500 -0.021183 0.010287
v -0.007500 -0.021598 0.009881
v -0.007500 -0.018570 0.011470
v -0.007500 -0.020722 0.010643
v -0.007500 -0.001067 -0.004885
v -0.007000 -0.000835 -0.005942
v -0.007500 -0.021047 0.002628
v -0.007000 -0.021838 0.001986
v -0.007500 -0.020066 0.002008
v 0.007500 0.003418 0.003649
v 0.007500 0.003819 0.003227
v 0.007500 0.002485 0.004339
v 0.007500 -0.020417 0.010836
v 0.007500 -0.019898 0.011099
v 0.007500 -0.019352 0.011300
v 0.007500 -0.018210 0.011505
v 0.007000 -0.001451 -0.005822
v 0.007500 -0.001417 -0.004795
v 0.007000 -0.020625 0.001169
v 0.007000 0.005768 0.001654
v 0.007500 0.004861 0.001170
v 0.007000 0.005909 0.001042
v 0.007000 -0.023901 0.006514
v 0.007500 -0.022594 0.004788
v 0.007500 -0.022763 0.005344
v 0.007000 -0.023723 0.005063
v -0.007000 0.005996 -0.000209
v -0.007500 0.004996 -0.000202
v -0.007000 0.005942 -0.000835
v -0.007500 0.004908 0.000955
v -0.007500 0.004285 0.002576
v -0.007500 -0.017409 0.011490
v -0.007500 0.003576 0.003495
v -0.007500 0.003146 0.003886
v -0.007500 0.002673 0.004225
v -0.007500 0.002165 0.004507
v -0.007500 -0.022275 0.008938
v -0.007500 -0.022527 0.008414
v -0.007500 -0.022716 0.007864
v -0.007500 -0.022840 0.007296
v -0.007500 -0.021964 0.009429
v -0.007500 -0.019694 0.011182
v -0.007500 -0.019140 0.011359
v -0.007500 -0.020224 0.010943
v -0.007500 -0.000493 -0.004976
v -0.007000 -0.022360 0.002500
v -0.007500 -0.021477 0.003020
v 0.007500 0.004168 0.002762
v 0.007500 0.002972 0.004021
v 0.007500 -0.018787 0.011436
v 0.007500 -0.001964 -0.004598
v 0.007000 -0.000835 -0.005942
v 0.007500 -0.000851 -0.004927
v 0.007500 0.004964 0.000598
v 0.007500 0.004692 0.001727
v 0.007500 -0.020901 0.010515
v 0.007500 -0.021345 0.010139
v 0.007500 -0.022089 0.009247
v 0.007500 -0.021743 0.009715
v 0.007500 -0.022771 0.007651
v 0.007500 -0.022606 0.008208
v 0.007500 -0.022378 0.008743
v 0.007000 -0.023503 0.004364
v -0.007000 -0.023199 0.003698
v -0.007000 -0.023503 0.004364
v -0.007500 -0.022457 0.004453
v 0.007500 -0.022866 0.005917
v 0.007000 -0.023857 0.005783
v -0.007500 0.004939 -0.000781
v -0.007500 0.003957 0.003056
v -0.007500 -0.016835 0.011400
v -0.007500 0.001239 -0.004844
v -0.007500 0.001793 -0.004667
v -0.007000 0.001654 -0.005768
v -0.007000 0.000419 -0.005985
v -0.007000 -0.000209 -0.005996
v -0.007500 0.000088 -0.004999
v -0.007500 0.000668 -0.004955
v -0.007000 -0.022816 0.003073
v -0.007500 -0.021859 0.003458
v 0.007000 -0.021256 0.001540
v 0.007500 -0.020873 0.002494
v 0.007000 -0.021838 0.001986
v 0.007500 -0.021320 0.002866
v 0.007500 0.005000 0.000018
v 0.007000 0.005985 0.000419
v 0.007000 0.005996 -0.000209
v 0.007000 0.005393 -0.002630
v 0.007500 0.004704 -0.001693
v 0.007500 0.004476 -0.002228
v 0.007000 0.005638 -0.002052
v 0.007000 0.005822 -0.001451
v 0.007500 0.004869 -0.001136
v 0.007500 0.004968 -0.000563
v -0.007000 0.001042 -0.005909
v 0.007000 -0.022360 0.002500
v 0.007000 -0.022816 0.003073
v 0.007500 -0.022069 0.003752
v 0.007000 -0.023199 0.003698
v -0.007500 -0.022887 0.006136
v -0.007000 -0.023723 0.005063
v -0.007500 -0.022665 0.004996
v -0.007500 -0.022809 0.005559
v -0.007000 -0.023857 0.005783
v -0.007500 0.002323 -0.004428
v -0.007000 0.002248 -0.005563
v -0.007000 0.003355 -0.004974
v -0.007500 0.002821 -0.004128
v -0.007500 0.003281 -0.003773
v -0.007000 0.003857 -0.004596
v -0.007000 0.004728 -0.003694
v -0.007500 0.003697 -0.003366
v -0.007500 0.004063 -0.002914
v -0.007000 0.004316 -0.004168
v -0.007500 0.004625 -0.001899
v -0.007000 0.005393 -0.002630
v -0.007500 0.004374 -0.002423
v -0.007500 -0.022187 0.003938
v 0.007500 -0.000273 -0.004993
v 0.007500 0.000308 -0.004990
v 0.007000 0.000419 -0.005985
v 0.007500 0.000886 -0.004921
v 0.007500 -0.020386 0.002176
v 0.007000 0.005942 -0.000835
v 0.007000 0.005088 -0.003179
v 0.007000 0.003355 -0.004974
v 0.007000 0.003857 -0.004596
v 0.007500 0.003000 -0.004000
v 0.007000 0.001654 -0.005768
v 0.007500 0.001451 -0.004785
v 0.007500 -0.022362 0.004255
v 0.007500 -0.021720 0.003287
v -0.007000 0.005088 -0.003179
v -0.007500 0.004815 -0.001349
v -0.007000 0.005638 -0.002052
v 0.007000 0.001042 -0.005909
v 0.007000 -0.000209 -0.005996
v 0.007500 0.004187 -0.002733
v 0.007000 0.004728 -0.003694
v 0.007500 0.003842 -0.003200
v 0.007500 0.003444 -0.003625
v 0.007500 0.001997 -0.004584
v 0.007000 0.002248 -0.005563
v 0.007000 0.002817 -0.005298
v 0.007500 0.002515 -0.004321
v -0.007000 0.002817 -0.005298
v -0.007000 0.005822 -0.001451
v 0.007000 0.004316 -0.004168
vn -0.5983 0.4302 0.6760
vn -1.0000 -0.0002 0.0078
vn -0.5813 -0.5259 0.6209
vn 0.9729 0.2106 0.0952
vn 0.5180 0.7937 0.3188
vn 0.5983 0.4302 0.6760
vn 0.5813 -0.5259 0.6209
vn 1.0000 0.0004 0.0078
vn 0.9850 -0.1723 0.0108
vn 0.5981 -0.7980 0.0738
vn -0.9715 -0.1266 -0.2003
vn -0.5161 -0.3888 -0.7632
vn -0.5160 -0.4790 -0.7102
vn -0.5216 -0.2711 -0.8090
vn -0.9727 -0.0836 -0.2165
vn -0.9721 -0.0721 -0.2232
vn -0.5210 -0.3158 -0.7930
vn 1.0000 0.0023 0.0076
vn 1.0000 0.0027 0.0073
vn 1.0000 0.0037 0.0080
vn 1.0000 0.0014 0.0077
vn -0.5175 -0.2071 -0.8302
vn 0.5221 -0.2716 -0.8085
vn 0.9716 -0.0932 -0.2173
vn 0.5212 -0.3150 -0.7932
vn 0.9722 -0.2341 -0.0068
vn -0.5211 -0.8531 -0.0251
vn -0.5979 -0.7982 0.0738
vn -0.9732 -0.2299 -0.0006
vn -0.5181 0.8533 0.0595
vn -0.9714 0.2366 0.0178
vn -0.5178 0.8426 0.1484
vn -0.9716 0.2255 0.0718
vn -0.5178 0.7939 0.3186
vn -0.5175 0.8225 0.2357
vn -0.9722 0.2154 0.0920
vn -1.0000 0.0030 0.0075
vn -1.0000 0.0025 0.0075
vn -0.9999 -0.0075 0.0081
vn -0.9999 -0.0097 0.0082
vn -1.0000 -0.0011 0.0078
vn -1.0000 -0.0057 0.0080
vn -0.9716 -0.0506 -0.2312
vn -0.5174 -0.1191 -0.8474
vn -0.9716 -0.1489 -0.1842
vn -0.5159 -0.5620 -0.6466
vn -0.9715 -0.1025 -0.2138
vn 0.9999 0.0115 0.0112
vn 0.9997 0.0187 0.0143
vn 0.9999 0.0054 0.0086
vn 1.0000 -0.0048 0.0079
vn 1.0000 -0.0036 0.0079
vn 1.0000 -0.0025 0.0078
vn 1.0000 -0.0005 0.0078
vn 0.5174 -0.2069 -0.8304
vn 0.9716 -0.0670 -0.2267
vn 0.5157 -0.3889 -0.7634
vn 0.5174 0.8226 0.2360
vn 0.9716 0.2299 0.0554
vn 0.5173 0.8428 0.1487
vn 0.5211 -0.8531 -0.0259
vn 0.9714 -0.2228 -0.0818
vn 0.9714 -0.2310 -0.0555
vn 0.5164 -0.8309 -0.2072
vn -0.5181 0.8548 -0.0296
vn -0.9714 0.2371 -0.0094
vn -0.5178 0.8472 -0.1188
vn -0.9715 0.2325 0.0451
vn -0.9973 0.0650 0.0343
vn -1.0000 0.0008 0.0078
vn -0.9998 0.0136 0.0121
vn -0.9999 0.0089 0.0101
vn -0.9999 0.0061 0.0090
vn -1.0000 0.0043 0.0082
vn -0.9998 -0.0181 0.0090
vn -0.9995 -0.0283 0.0100
vn -0.9982 -0.0592 0.0132
vn -0.9894 -0.1443 0.0152
vn -0.9999 -0.0129 0.0085
vn -1.0000 -0.0032 0.0079
vn -1.0000 -0.0021 0.0078
vn -1.0000 -0.0043 0.0079
vn -0.9716 -0.0233 -0.2353
vn -0.5158 -0.6366 -0.5733
vn -0.9716 -0.1692 -0.1656
vn 0.9989 0.0399 0.0235
vn 0.9999 0.0077 0.0096
vn 1.0000 -0.0015 0.0078
vn 0.9736 -0.0778 -0.2148
vn 0.5175 -0.1189 -0.8474
vn 0.9716 -0.0402 -0.2331
vn 0.9717 0.2347 0.0283
vn 0.9716 0.2220 0.0818
vn 0.9999 -0.0063 0.0080
vn 0.9999 -0.0082 0.0081
vn 0.9999 -0.0146 0.0087
vn 0.9999 -0.0108 0.0083
vn 0.9950 -0.0986 0.0173
vn 0.9993 -0.0354 0.0107
vn 0.9997 -0.0211 0.0093
vn 0.5163 -0.7996 -0.3069
vn -0.5157 -0.7565 -0.4022
vn -0.5157 -0.7999 -0.3070
vn -0.9716 -0.2156 -0.0976
vn 0.9713 -0.2361 -0.0283
vn 0.5166 -0.8499 -0.1043
vn -0.9715 0.2340 -0.0369
vn -0.9996 0.0237 0.0165
vn -1.0000 0.0017 0.0077
vn -0.9716 0.0587 -0.2292
vn -0.9715 0.0851 -0.2211
vn -0.5175 0.2360 -0.8225
vn -0.5173 0.0598 -0.8537
vn -0.5173 -0.0299 -0.8553
vn -0.9717 0.0042 -0.2364
vn -0.9716 0.0316 -0.2343
vn -0.5158 -0.7018 -0.4915
vn -0.9716 -0.1873 -0.1447
vn 0.5158 -0.4790 -0.7103
vn 0.9716 -0.1408 -0.1903
vn 0.5159 -0.5620 -0.6465
vn 0.9716 -0.1620 -0.1727
vn 0.9716 0.2365 0.0008
vn 0.5173 0.8537 0.0597
vn 0.5174 0.8552 -0.0299
vn 0.5180 0.7689 -0.3748
vn 0.9714 0.2232 -0.0805
vn 0.9715 0.2124 -0.1055
vn 0.5181 0.8037 -0.2926
vn 0.5178 0.8300 -0.2071
vn 0.9715 0.2307 -0.0540
vn 0.9716 0.2352 -0.0267
vn -0.5174 0.1487 -0.8427
vn 0.5159 -0.6366 -0.5732
vn 0.5160 -0.7017 -0.4913
vn 0.9715 -0.1977 -0.1308
vn 0.5161 -0.7563 -0.4021
vn -0.9716 -0.2360 -0.0179
vn -0.5157 -0.8313 -0.2073
vn -0.9716 -0.2255 -0.0718
vn -0.9716 -0.2323 -0.0452
vn -0.5157 -0.8503 -0.1045
vn -0.9714 0.1104 -0.2100
vn -0.5178 0.3207 -0.7931
vn -0.5181 0.4782 -0.7092
vn -0.9714 0.1337 -0.1960
vn -0.9715 0.1554 -0.1788
vn -0.5178 0.5498 -0.6555
vn -0.5174 0.6743 -0.5269
vn -0.9716 0.1749 -0.1594
vn -0.9716 0.1921 -0.1378
vn -0.5175 0.6154 -0.5945
vn -0.9716 0.2188 -0.0898
vn -0.5173 0.7692 -0.3751
vn -0.9717 0.2068 -0.1146
vn -0.9716 -0.2028 -0.1220
vn 0.9716 -0.0128 -0.2365
vn 0.9715 0.0148 -0.2367
vn 0.5180 0.0599 -0.8533
vn 0.9714 0.0419 -0.2336
vn 0.9716 -0.1177 -0.2053
vn 0.5176 0.8473 -0.1192
vn 0.5177 0.7257 -0.4532
vn 0.5173 0.4785 -0.7095
vn 0.5173 0.5501 -0.6555
vn 0.9717 0.1418 -0.1891
vn 0.5178 0.2357 -0.8224
vn 0.9715 0.0686 -0.2268
vn 0.9715 -0.2116 -0.1071
vn 0.9715 -0.1810 -0.1528
vn -0.5173 0.7258 -0.4535
vn -0.9716 0.2279 -0.0638
vn -0.5174 0.8042 -0.2926
vn 0.5181 0.1484 -0.8424
vn 0.5177 -0.0296 -0.8550
vn 0.9716 0.1984 -0.1293
vn 0.5175 0.6744 -0.5267
vn 0.9716 0.1818 -0.1514
vn 0.9716 0.1629 -0.1714
vn 0.9716 0.0944 -0.2170
vn 0.5176 0.3204 -0.7934
vn 0.5174 0.4017 -0.7556
vn 0.9716 0.1189 -0.2044
vn -0.5181 0.4018 -0.7551
vn -0.5176 0.8303 -0.2068
vn 0.5174 0.6157 -0.5944
s 1
f 1//1 2//2 3//3
f 4//4 5//5 6//6
f 7//7 8//8 6//6
f 9//9 7//7 10//10
f 11//11 12//12 13//13
f 14//14 15//15 16//16
f 17//17 15//15 14//14
f 18//18 19//19 6//6
f 19//19 20//20 6//6
f 18//18 6//6 21//21
f 8//8 21//21 6//6
f 22//22 14//14 16//16
f 23//23 24//24 25//25
f 26//26 9//9 10//10
f 27//27 28//28 29//29
f 30//30 31//31 32//32
f 33//33 34//34 35//35
f 34//34 36//36 1//1
f 33//33 36//36 34//34
f 37//37 38//38 1//1
f 39//39 40//40 3//3
f 2//2 41//41 3//3
f 42//42 39//39 3//3
f 22//22 43//43 44//44
f 22//22 16//16 43//43
f 45//45 11//11 13//13
f 46//46 45//45 13//13
f 12//12 47//47 17//17
f 47//47 15//15 17//17
f 12//12 11//11 47//47
f 48//48 49//49 6//6
f 20//20 50//50 6//6
f 7//7 51//51 52//52
f 52//52 53//53 7//7
f 7//7 54//54 8//8
f 55//55 56//56 23//23
f 24//24 57//57 25//25
f 58//58 59//59 60//60
f 26//26 10//10 61//61
f 62//62 63//63 64//64
f 65//65 66//66 30//30
f 66//66 31//31 30//30
f 67//67 66//66 65//65
f 31//31 68//68 32//32
f 32//32 68//68 35//35
f 35//35 68//68 33//33
f 36//36 69//69 1//1
f 1//1 70//70 2//2
f 71//71 72//72 1//1
f 72//72 73//73 1//1
f 74//74 37//37 1//1
f 73//73 74//74 1//1
f 75//75 76//76 3//3
f 76//76 77//77 3//3
f 3//3 78//78 28//28
f 77//77 78//78 3//3
f 28//28 78//78 29//29
f 79//79 75//75 3//3
f 40//40 79//79 3//3
f 80//80 3//3 81//81
f 41//41 81//81 3//3
f 80//80 82//82 3//3
f 82//82 42//42 3//3
f 43//43 83//83 44//44
f 84//84 85//85 46//46
f 85//85 45//45 46//46
f 86//86 4//4 6//6
f 49//49 86//86 6//6
f 87//87 48//48 6//6
f 50//50 87//87 6//6
f 53//53 88//88 7//7
f 88//88 54//54 7//7
f 89//89 24//24 23//23
f 56//56 89//89 23//23
f 90//90 91//91 55//55
f 91//91 56//56 55//55
f 59//59 92//92 60//60
f 5//5 93//93 58//58
f 93//93 59//59 58//58
f 5//5 4//4 93//93
f 7//7 94//94 51//51
f 95//95 94//94 7//7
f 96//96 97//97 7//7
f 97//97 95//95 7//7
f 9//9 98//98 7//7
f 98//98 99//99 7//7
f 100//100 96//96 7//7
f 99//99 100//100 7//7
f 62//62 64//64 101//101
f 102//102 103//103 104//104
f 105//105 106//106 63//63
f 63//63 106//106 64//64
f 26//26 106//106 105//105
f 61//61 106//106 26//26
f 107//107 66//66 67//67
f 108//108 71//71 1//1
f 69//69 108//108 1//1
f 38//38 109//109 1//1
f 109//109 70//70 1//1
f 110//110 111//111 112//112
f 113//113 114//114 115//115
f 115//115 114//114 83//83
f 83//83 114//114 44//44
f 113//113 115//115 116//116
f 117//117 118//118 84//84
f 118//118 85//85 84//84
f 119//119 120//120 121//121
f 120//120 122//122 121//121
f 123//123 124//124 92//92
f 125//125 124//124 123//123
f 92//92 124//124 60//60
f 126//126 127//127 128//128
f 129//129 127//127 126//126
f 130//130 127//127 129//129
f 131//131 127//127 130//130
f 125//125 123//123 132//132
f 116//116 133//133 113//113
f 110//110 133//133 116//116
f 110//110 112//112 133//133
f 122//122 134//134 121//121
f 135//135 136//136 137//137
f 27//27 29//29 138//138
f 139//139 140//140 103//103
f 141//141 140//140 139//139
f 103//103 140//140 104//104
f 138//138 142//142 27//27
f 141//141 142//142 138//138
f 141//141 139//139 142//142
f 143//143 144//144 111//111
f 111//111 144//144 112//112
f 145//145 143//143 146//146
f 146//146 147//147 148//148
f 145//145 146//146 148//148
f 149//149 150//150 151//151
f 149//149 152//152 150//150
f 150//150 152//152 147//147
f 147//147 152//152 148//148
f 153//153 154//154 155//155
f 117//117 102//102 156//156
f 118//118 117//117 156//156
f 104//104 156//156 102//102
f 157//157 91//91 90//90
f 158//158 159//159 160//160
f 57//57 161//161 119//119
f 161//161 120//120 119//119
f 57//57 24//24 161//161
f 132//132 162//162 125//125
f 131//131 162//162 132//132
f 131//131 130//130 162//162
f 163//163 126//126 128//128
f 164//164 165//165 166//166
f 167//167 168//168 160//160
f 136//136 169//169 137//137
f 137//137 169//169 101//101
f 101//101 169//169 62//62
f 134//134 170//170 135//135
f 170//170 136//136 135//135
f 134//134 122//122 170//170
f 154//154 171//171 155//155
f 155//155 171//171 151//151
f 151//151 171//171 149//149
f 172//172 173//173 153//153
f 173//173 154//154 153//153
f 167//167 160//160 174//174
f 159//159 174//174 160//160
f 157//157 175//175 158//158
f 175//175 159//159 158//158
f 157//157 90//90 175//175
f 163//163 128//128 176//176
f 163//163 176//176 177//177
f 176//176 178//178 177//177
f 165//165 179//179 166//166
f 180//180 181//181 182//182
f 168//168 181//181 180//180
f 168//168 167//167 181//181
f 182//182 183//183 180//180
f 166//166 183//183 164//164
f 182//182 164//164 183//183
f 145//145 184//184 143//143
f 184//184 144//144 143//143
f 185//185 173//173 172//172
f 107//107 185//185 172//172
f 107//107 67//67 185//185
f 179//179 186//186 178//178
f 178//178 186//186 177//177
f 179//179 165//165 186//186
f 3//3 7//7 1//1
f 1//1 7//7 6//6
f 28//28 7//7 3//3
f 7//7 28//28 10//10
f 34//34 1//1 6//6
f 5//5 34//34 6//6
f 90//90 55//55 22//22
f 90//90 22//22 44//44
f 23//23 22//22 55//55
f 22//22 23//23 14//14
f 14//14 23//23 17//17
f 17//17 23//23 25//25
f 58//58 60//60 35//35
f 32//32 35//35 60//60
f 34//34 5//5 35//35
f 58//58 35//35 5//5
f 25//25 57//57 17//17
f 57//57 12//12 17//17
f 28//28 61//61 10//10
f 27//27 61//61 28//28
f 46//46 119//119 121//121
f 119//119 46//46 13//13
f 57//57 119//119 12//12
f 12//12 119//119 13//13
f 102//102 135//135 137//137
f 117//117 135//135 102//102
f 137//137 103//103 102//102
f 101//101 103//103 137//137
f 139//139 103//103 64//64
f 101//101 64//64 103//103
f 124//124 32//32 60//60
f 124//124 30//30 32//32
f 30//30 124//124 65//65
f 125//125 65//65 124//124
f 134//134 46//46 121//121
f 46//46 134//134 84//84
f 134//134 135//135 117//117
f 134//134 117//117 84//84
f 142//142 61//61 27//27
f 61//61 142//142 106//106
f 139//139 64//64 142//142
f 106//106 142//142 64//64
f 66//66 156//156 31//31
f 79//79 40//40 156//156
f 74//74 73//73 156//156
f 146//146 156//156 147//147
f 38//38 37//37 156//156
f 83//83 43//43 156//156
f 116//116 156//156 110//110
f 153//153 155//155 156//156
f 36//36 33//33 156//156
f 72//72 156//156 73//73
f 78//78 77//77 156//156
f 41//41 156//156 81//81
f 82//82 156//156 42//42
f 85//85 156//156 45//45
f 15//15 156//156 16//16
f 47//47 156//156 15//15
f 68//68 31//31 156//156
f 69//69 36//36 156//156
f 108//108 69//69 156//156
f 76//76 156//156 77//77
f 40//40 39//39 156//156
f 2//2 156//156 41//41
f 42//42 156//156 39//39
f 43//43 16//16 156//156
f 111//111 110//110 156//156
f 45//45 156//156 11//11
f 47//47 11//11 156//156
f 138//138 156//156 141//141
f 68//68 156//156 33//33
f 107//107 156//156 66//66
f 70//70 156//156 2//2
f 72//72 71//71 156//156
f 74//74 156//156 37//37
f 76//76 75//75 156//156
f 78//78 156//156 29//29
f 79//79 156//156 75//75
f 81//81 156//156 80//80
f 82//82 80//80 156//156
f 83//83 156//156 115//115
f 109//109 156//156 70//70
f 153//153 156//156 172//172
f 147//147 156//156 150//150
f 118//118 156//156 85//85
f 107//107 172//172 156//156
f 108//108 156//156 71//71
f 109//109 38//38 156//156
f 111//111 156//156 143//143
f 116//116 115//115 156//156
f 140//140 141//141 156//156
f 151//151 156//156 155//155
f 138//138 29//29 156//156
f 140//140 156//156 104//104
f 146//146 143//143 156//156
f 151//151 150//150 156//156
f 125//125 162//162 65//65
f 65//65 162//162 67//67
f 165//165 145//145 148//148
f 145//145 165//165 164//164
f 163//163 177//177 171//171
f 149//149 171//171 177//177
f 154//154 126//126 171//171
f 163//163 171//171 126//126
f 154//154 173//173 126//126
f 129//129 126//126 173//173
f 133//133 112//112 174//174
f 167//167 174//174 112//112
f 133//133 174//174 113//113
f 113//113 174//174 159//159
f 44//44 175//175 90//90
f 114//114 175//175 44//44
f 159//159 175//175 113//113
f 175//175 114//114 113//113
f 112//112 181//181 167//167
f 144//144 181//181 112//112
f 52//52 183//183 53//53
f 19//19 183//183 20//20
f 49//49 48//48 183//183
f 127//127 131//131 183//183
f 93//93 183//183 59//59
f 8//8 183//183 21//21
f 94//94 95//95 183//183
f 26//26 183//183 9//9
f 63//63 62//62 183//183
f 19//19 18//18 183//183
f 21//21 183//183 18//18
f 86//86 49//49 183//183
f 87//87 50//50 183//183
f 88//88 183//183 54//54
f 26//26 105//105 183//183
f 91//91 183//183 56//56
f 98//98 183//183 99//99
f 179//179 178//178 183//183
f 50//50 20//20 183//183
f 52//52 51//51 183//183
f 54//54 183//183 8//8
f 89//89 56//56 183//183
f 92//92 59//59 183//183
f 161//161 183//183 120//120
f 97//97 183//183 95//95
f 63//63 183//183 105//105
f 169//169 136//136 183//183
f 86//86 183//183 4//4
f 87//87 183//183 48//48
f 88//88 53//53 183//183
f 89//89 183//183 24//24
f 100//100 99//99 183//183
f 92//92 183//183 123//123
f 93//93 4//4 183//183
f 120//120 183//183 122//122
f 132//132 183//183 131//131
f 94//94 183//183 51//51
f 97//97 96//96 183//183
f 98//98 9//9 183//183
f 100//100 183//183 96//96
f 158//158 160//160 183//183
f 157//157 158//158 183//183
f 127//127 183//183 128//128
f 132//132 123//123 183//183
f 176//176 183//183 178//178
f 168//168 180//180 183//183
f 157//157 183//183 91//91
f 161//161 24//24 183//183
f 170//170 183//183 136//136
f 168//168 183//183 160//160
f 169//169 183//183 62//62
f 170//170 122//122 183//183
f 176//176 128//128 183//183
f 179//179 183//183 166//166
f 184//184 145//145 164//164
f 182//182 184//184 164//164
f 144//144 184//184 181//181
f 181//181 184//184 182//182
f 162//162 185//185 67//67
f 162//162 130//130 185//185
f 173//173 185//185 129//129
f 129//129 185//185 130//130
f 177//177 186//186 149//149
f 186//186 152//152 149//149
f 148//148 186//186 165//165
f 152//152 186//186 148//148
