# Blender 4.2.1 LTS
# www.blender.org
mtllib robotiq_arg2f_85_outer_knuckle.mtl
o robotiq_arg2f_85_outer_knuckle
v -0.005000 0.031677 -0.009082
v -0.005000 0.032256 -0.009026
v -0.004500 0.031752 -0.010080
v -0.004500 0.023690 0.012750
v -0.011500 0.024200 0.009278
v -0.005500 -0.001328 0.007382
v -0.012000 0.024228 0.008765
v -0.012000 0.024720 0.008857
v 0.011500 0.024200 0.009278
v 0.004500 0.023690 0.012750
v 0.005500 -0.001328 0.007382
v 0.005500 -0.002003 0.007228
v 0.012000 0.024720 0.008857
v 0.011500 0.024851 0.009361
v 0.005500 -0.005954 0.004561
v 0.012000 0.023090 0.007830
v 0.012000 0.023386 0.008235
v -0.004500 0.024327 0.012839
v -0.011500 0.024851 0.009361
v -0.004500 0.024970 0.012859
v -0.004500 0.033545 0.011782
v -0.011500 0.025500 0.009272
v -0.012000 0.025207 0.004895
v 0.012000 0.022901 0.006370
v 0.005500 -0.007012 -0.002661
v 0.012000 0.023084 0.005903
v -0.004500 0.038644 0.007068
v -0.012000 0.026701 0.007591
v -0.004500 0.038469 0.007717
v -0.004500 0.038222 0.008343
v -0.004500 0.037906 0.008938
v 0.004500 0.024327 0.012839
v 0.004500 0.033545 0.011782
v 0.004500 0.025611 0.012811
v 0.012000 0.026461 0.008031
v 0.012000 0.026701 0.007591
v 0.004500 0.037906 0.008938
v 0.011500 0.025500 0.009272
v 0.011500 0.026104 0.009017
v 0.004500 0.034850 0.011461
v 0.012000 0.025697 0.008668
v 0.005000 0.035908 -0.006419
v 0.012000 0.026696 0.006118
v 0.012000 0.026453 0.005680
v 0.005000 0.035608 -0.006916
v 0.005000 0.032256 -0.009026
v 0.005000 0.032824 -0.008903
v 0.012000 0.025207 0.004895
v 0.012000 0.025685 0.005048
v 0.005000 0.034391 -0.008155
v 0.012000 0.026109 0.005315
v 0.004500 0.033025 -0.009885
v 0.005000 0.033374 -0.008715
v -0.004500 0.032394 -0.010017
v 0.004500 0.036573 -0.007268
v -0.004500 0.034206 0.011658
v -0.004500 0.034850 0.011461
v -0.004500 0.025611 0.012811
v -0.012000 0.026461 0.008031
v -0.012000 0.026119 0.008397
v -0.004500 0.037086 0.010002
v -0.012000 0.024707 0.004865
v -0.004500 0.031107 -0.010074
v -0.005500 -0.001429 -0.007363
v -0.012000 0.024215 0.004961
v -0.005500 -0.000743 -0.007463
v -0.005500 -0.002102 -0.007199
v -0.005500 -0.003389 -0.006691
v -0.012000 0.023762 0.005176
v 0.005500 -0.004561 -0.005954
v 0.012000 0.023762 0.005176
v 0.012000 0.023377 0.005497
v -0.012000 0.022839 0.006868
v -0.005500 -0.007500 0.000051
v -0.005500 -0.007463 0.000743
v -0.012000 0.022901 0.006370
v -0.005500 -0.007473 -0.000641
v 0.012000 0.022904 0.007365
v 0.005500 -0.007199 0.002102
v 0.005500 -0.007363 0.001429
v 0.012000 0.024228 0.008765
v 0.012000 0.024707 0.004865
v 0.005500 -0.000051 -0.007500
v 0.004500 0.031107 -0.010074
v 0.004500 0.031752 -0.010080
v 0.005500 -0.007473 -0.000641
v 0.012000 0.022839 0.006868
v 0.005500 -0.007500 0.000051
v 0.005500 -0.007382 -0.001328
v 0.005500 -0.007228 -0.002003
v 0.004500 0.038746 0.006403
v 0.004500 0.038644 0.007068
v 0.012000 0.026824 0.007105
v 0.004500 0.038469 0.007717
v 0.004500 0.038772 0.005730
v 0.004500 0.037319 -0.005492
v 0.004500 0.037135 -0.006109
v 0.004500 0.024970 0.012859
v 0.004500 0.038222 0.008343
v -0.004500 0.037526 0.009493
v -0.004500 0.036592 0.010459
v -0.004500 0.036050 0.010857
v 0.012000 0.026119 0.008397
v 0.004500 0.037086 0.010002
v 0.004500 0.036050 0.010857
v 0.012000 0.025221 0.008824
v -0.005000 0.034391 -0.008155
v -0.012000 0.026109 0.005315
v -0.005000 0.034844 -0.007790
v -0.012000 0.025685 0.005048
v -0.005000 0.032824 -0.008903
v -0.005000 0.033374 -0.008715
v -0.004500 0.036885 -0.006704
v -0.012000 0.026696 0.006118
v -0.004500 0.037135 -0.006109
v 0.005000 0.033899 -0.008465
v 0.004500 0.034783 -0.009098
v 0.004500 0.033638 -0.009686
v 0.004500 0.032394 -0.010017
v 0.005000 0.035251 -0.007375
v 0.004500 0.035302 -0.008716
v -0.005500 -0.003297 0.006737
v -0.005500 -0.002661 0.007012
v -0.005500 -0.002003 0.007228
v -0.012000 0.023090 0.007830
v -0.005500 -0.006349 0.003992
v -0.005500 -0.005954 0.004561
v -0.005500 -0.006691 0.003389
v -0.005500 -0.006975 0.002757
v -0.012000 0.023386 0.008235
v 0.005500 -0.005508 0.005091
v 0.005500 -0.005015 0.005577
v 0.004500 0.034206 0.011658
v -0.012000 0.025697 0.008668
v -0.012000 0.025221 0.008824
v -0.005500 -0.000051 -0.007500
v -0.005500 -0.007382 -0.001328
v -0.005500 -0.007228 -0.002003
v -0.005500 -0.007012 -0.002661
v -0.012000 0.023084 0.005903
v -0.005500 -0.006737 -0.003297
v -0.005500 -0.006016 -0.004479
v -0.012000 0.023377 0.005497
v -0.005500 -0.005577 -0.005015
v -0.005500 -0.002757 -0.006975
v -0.005500 -0.004561 -0.005954
v 0.005500 -0.005091 -0.005508
v 0.005500 -0.005577 -0.005015
v -0.005500 -0.007199 0.002102
v -0.012000 0.022904 0.007365
v 0.005500 -0.007463 0.000743
v 0.012000 0.023773 0.008553
v 0.005500 -0.003904 0.006404
v 0.005500 -0.004479 0.006016
v 0.005500 -0.003297 0.006737
v 0.005500 -0.002661 0.007012
v 0.005000 0.031677 -0.009082
v 0.005500 -0.006737 -0.003297
v 0.005500 -0.006404 -0.003904
v 0.005500 -0.006016 -0.004479
v -0.004500 0.038723 0.005059
v -0.004500 0.037436 -0.004858
v -0.012000 0.026823 0.006603
v 0.012000 0.026823 0.006603
v 0.004500 0.037436 -0.004858
v 0.004500 0.038723 0.005059
v 0.004500 0.037526 0.009493
v -0.011500 0.026104 0.009017
v -0.004500 0.035467 0.011193
v 0.004500 0.035467 0.011193
v 0.004500 0.036592 0.010459
v -0.005000 0.033899 -0.008465
v -0.004500 0.034226 -0.009423
v -0.005000 0.035251 -0.007375
v -0.012000 0.026453 0.005680
v -0.005000 0.035608 -0.006916
v -0.004500 0.036202 -0.007795
v -0.004500 0.036573 -0.007268
v 0.004500 0.036885 -0.006704
v 0.004500 0.034226 -0.009423
v 0.004500 0.036202 -0.007795
v 0.004500 0.035777 -0.008280
v 0.005000 0.034844 -0.007790
v 0.005500 -0.006349 0.003992
v 0.005500 -0.006691 0.003389
v 0.005500 -0.006975 0.002757
v -0.005500 -0.005508 0.005091
v -0.005500 -0.005015 0.005577
v -0.005500 -0.003904 0.006404
v -0.012000 0.023773 0.008553
v -0.005500 -0.006404 -0.003904
v -0.005500 -0.005091 -0.005508
v -0.005500 -0.003992 -0.006349
v -0.005500 -0.007363 0.001429
v -0.004500 0.037319 -0.005492
v -0.012000 0.026824 0.007105
v -0.004500 0.033025 -0.009885
v -0.004500 0.035302 -0.008716
v -0.005000 0.035908 -0.006419
v -0.005500 -0.004479 0.006016
v 0.005500 -0.003389 -0.006691
v 0.012000 0.024215 0.004961
v 0.005500 -0.002757 -0.006975
v 0.005500 -0.001429 -0.007363
v -0.004500 0.038746 0.006403
v -0.004500 0.033638 -0.009686
v -0.004500 0.034783 -0.009098
v -0.004500 0.035777 -0.008280
v 0.005500 -0.003992 -0.006349
v 0.005500 -0.000743 -0.007463
v 0.005500 -0.002102 -0.007199
v -0.004500 0.038772 0.005730
vn -0.8965 0.0242 -0.4425
vn -0.8998 0.0691 -0.4309
vn -0.5175 0.0385 -0.8548
vn -0.2264 -0.1655 0.9599
vn -0.5928 -0.1535 0.7906
vn -0.2781 -0.2089 0.9375
vn -0.9192 -0.1032 0.3799
vn -0.9142 -0.0251 0.4045
vn 0.5928 -0.1535 0.7906
vn 0.2264 -0.1655 0.9599
vn 0.2781 -0.2089 0.9375
vn 0.3768 -0.2608 0.8888
vn 0.9142 -0.0251 0.4045
vn 0.5782 0.0028 0.8159
vn 0.5878 -0.6446 0.4890
vn 0.9889 -0.1257 0.0792
vn 0.9811 -0.1304 0.1430
vn -0.2284 -0.0834 0.9700
vn -0.5782 0.0028 0.8159
vn -0.2280 0.0212 0.9734
vn -0.2471 0.1576 0.9561
vn -0.6036 0.1812 0.7764
vn -0.9722 0.0376 -0.2312
vn 0.9939 -0.1069 -0.0269
vn 0.6219 -0.7323 -0.2776
vn 0.9936 -0.0982 -0.0557
vn -0.4705 0.8638 0.1800
vn -0.9484 0.2922 0.1230
vn -0.4648 0.8414 0.2757
vn -0.4572 0.8091 0.3693
vn -0.4476 0.7673 0.4593
vn 0.2284 -0.0834 0.9700
vn 0.2471 0.1576 0.9561
vn 0.2294 0.0997 0.9682
vn 0.9380 0.2736 0.2129
vn 0.9484 0.2922 0.1230
vn 0.4476 0.7673 0.4593
vn 0.6036 0.1812 0.7764
vn 0.6801 0.3368 0.6512
vn 0.3228 0.3374 0.8843
vn 0.9145 0.1729 0.3659
vn 0.8958 0.3870 -0.2186
vn 0.9650 0.2470 -0.0876
vn 0.9716 0.1945 -0.1347
vn 0.8993 0.3592 -0.2494
vn 0.8998 0.0691 -0.4309
vn 0.9023 0.1166 -0.4149
vn 0.9722 0.0376 -0.2312
vn 0.9747 0.0930 -0.2031
vn 0.9047 0.2471 -0.3470
vn 0.9746 0.1439 -0.1718
vn 0.5177 0.2192 -0.8270
vn 0.9040 0.1621 -0.3957
vn -0.5179 0.1293 -0.8456
vn 0.5171 0.7256 -0.4539
vn -0.2841 0.2401 0.9282
vn -0.3228 0.3374 0.8843
vn -0.2294 0.0997 0.9682
vn -0.9380 0.2736 0.2129
vn -0.9217 0.2366 0.3074
vn -0.4208 0.6563 0.6263
vn -0.9719 -0.0045 -0.2354
vn -0.5150 -0.0308 -0.8567
vn -0.5636 -0.1626 -0.8099
vn -0.9831 -0.0447 -0.1778
vn -0.5497 -0.0976 -0.8296
vn -0.5770 -0.2332 -0.7827
vn -0.5959 -0.3657 -0.7150
vn -0.9896 -0.0708 -0.1248
vn 0.6078 -0.4847 -0.6290
vn 0.9896 -0.0708 -0.1248
vn 0.9924 -0.0869 -0.0869
vn -0.9935 -0.1140 0.0027
vn -0.6198 -0.7848 0.0046
vn -0.6179 -0.7825 0.0768
vn -0.9939 -0.1069 -0.0269
vn -0.6211 -0.7808 -0.0675
vn 0.9921 -0.1202 0.0362
vn 0.6120 -0.7597 0.2199
vn 0.6154 -0.7741 0.1487
vn 0.9192 -0.1032 0.3799
vn 0.9719 -0.0045 -0.2354
vn 0.8045 -0.0300 -0.5932
vn 0.5150 -0.0308 -0.8567
vn 0.5175 0.0385 -0.8548
vn 0.6211 -0.7808 -0.0675
vn 0.9935 -0.1140 0.0027
vn 0.6198 -0.7848 0.0046
vn 0.6219 -0.7707 -0.1389
vn 0.6221 -0.7545 -0.2091
vn 0.4745 0.8764 0.0825
vn 0.4705 0.8638 0.1800
vn 0.9538 0.2976 0.0404
vn 0.4648 0.8414 0.2757
vn 0.4768 0.8789 -0.0155
vn 0.4955 0.8432 -0.2084
vn 0.5070 0.8100 -0.2946
vn 0.2280 0.0212 0.9734
vn 0.4572 0.8091 0.3693
vn -0.4354 0.7162 0.5454
vn -0.4028 0.5878 0.7016
vn -0.3813 0.5116 0.7699
vn 0.9217 0.2366 0.3074
vn 0.4208 0.6563 0.6263
vn 0.3813 0.5116 0.7699
vn 0.9143 0.0763 0.3977
vn -0.9047 0.2471 -0.3470
vn -0.9746 0.1439 -0.1718
vn -0.9038 0.2867 -0.3177
vn -0.9747 0.0930 -0.2031
vn -0.9023 0.1166 -0.4149
vn -0.9040 0.1621 -0.3957
vn -0.5147 0.7704 -0.3763
vn -0.9650 0.2470 -0.0876
vn -0.5070 0.8100 -0.2946
vn 0.9048 0.2057 -0.3729
vn 0.5172 0.4703 -0.7151
vn 0.5175 0.3068 -0.7988
vn 0.5178 0.1293 -0.8457
vn 0.9021 0.3239 -0.2852
vn 0.5171 0.5443 -0.6605
vn -0.4906 -0.3913 0.7786
vn -0.4447 -0.3283 0.8333
vn -0.3768 -0.2608 0.8888
vn -0.9889 -0.1257 0.0792
vn -0.5960 -0.6815 0.4247
vn -0.5878 -0.6446 0.4890
vn -0.6026 -0.7131 0.3582
vn -0.6079 -0.7393 0.2899
vn -0.9811 -0.1304 0.1430
vn 0.5773 -0.6027 0.5509
vn 0.5638 -0.5561 0.6106
vn 0.2841 0.2401 0.9282
vn -0.9145 0.1729 0.3659
vn -0.9143 0.0763 0.3977
vn -0.8045 -0.0300 -0.5932
vn -0.6219 -0.7707 -0.1389
vn -0.6221 -0.7545 -0.2091
vn -0.6219 -0.7323 -0.2776
vn -0.9936 -0.0982 -0.0557
vn -0.6211 -0.7042 -0.3440
vn -0.6179 -0.6314 -0.4686
vn -0.9924 -0.0869 -0.0869
vn -0.6153 -0.5872 -0.5260
vn -0.5876 -0.3010 -0.7511
vn -0.6078 -0.4847 -0.6290
vn 0.6120 -0.5381 -0.5796
vn 0.6153 -0.5872 -0.5260
vn -0.6120 -0.7597 0.2199
vn -0.9921 -0.1202 0.0362
vn 0.6179 -0.7825 0.0768
vn 0.9572 -0.1314 0.2578
vn 0.5228 -0.4503 0.7238
vn 0.5464 -0.5052 0.6680
vn 0.4906 -0.3913 0.7786
vn 0.4447 -0.3283 0.8333
vn 0.8965 0.0242 -0.4425
vn 0.6211 -0.7042 -0.3440
vn 0.6198 -0.6705 -0.4078
vn 0.6179 -0.6314 -0.4686
vn -0.4811 0.8722 -0.0885
vn -0.4870 0.8624 -0.1385
vn -0.9576 0.2867 -0.0296
vn 0.9575 0.2868 -0.0296
vn 0.4870 0.8624 -0.1385
vn 0.4811 0.8722 -0.0885
vn 0.4354 0.7162 0.5454
vn -0.6801 0.3368 0.6512
vn -0.3547 0.4280 0.8313
vn 0.3547 0.4280 0.8313
vn 0.4028 0.5878 0.7016
vn -0.9048 0.2057 -0.3729
vn -0.5173 0.3908 -0.7614
vn -0.9021 0.3239 -0.2852
vn -0.9716 0.1945 -0.1347
vn -0.8993 0.3592 -0.2494
vn -0.5171 0.6728 -0.5292
vn -0.5171 0.7257 -0.4539
vn 0.5147 0.7704 -0.3763
vn 0.5173 0.3908 -0.7614
vn 0.5171 0.6728 -0.5292
vn 0.5171 0.6121 -0.5983
vn 0.9038 0.2867 -0.3177
vn 0.5960 -0.6815 0.4247
vn 0.6026 -0.7131 0.3582
vn 0.6078 -0.7393 0.2899
vn -0.5773 -0.6027 0.5509
vn -0.5639 -0.5561 0.6106
vn -0.5228 -0.4503 0.7238
vn -0.9572 -0.1314 0.2578
vn -0.6198 -0.6705 -0.4078
vn -0.6120 -0.5381 -0.5796
vn -0.6025 -0.4271 -0.6743
vn -0.6153 -0.7741 0.1487
vn -0.4955 0.8432 -0.2084
vn -0.9538 0.2976 0.0404
vn -0.5177 0.2192 -0.8270
vn -0.5171 0.5443 -0.6605
vn -0.8958 0.3870 -0.2186
vn -0.5464 -0.5052 0.6680
vn 0.5959 -0.3657 -0.7150
vn 0.9831 -0.0447 -0.1778
vn 0.5876 -0.3010 -0.7511
vn 0.5636 -0.1626 -0.8099
vn -0.4745 0.8764 0.0825
vn -0.5175 0.3068 -0.7988
vn -0.5172 0.4703 -0.7151
vn -0.5171 0.6121 -0.5983
vn 0.6025 -0.4271 -0.6743
vn 0.5497 -0.0976 -0.8296
vn 0.5770 -0.2332 -0.7827
vn -0.4768 0.8789 -0.0155
s 1
f 1//1 2//2 3//3
f 4//4 5//5 6//6
f 7//7 5//5 8//8
f 9//9 10//10 11//11
f 9//9 11//11 12//12
f 9//9 13//13 14//14
f 15//15 16//16 17//17
f 18//18 5//5 4//4
f 19//19 18//18 20//20
f 18//18 19//19 5//5
f 19//19 21//21 22//22
f 5//5 19//19 8//8
f 23//23 2//2 1//1
f 24//24 25//25 26//26
f 27//27 28//28 29//29
f 29//29 28//28 30//30
f 28//28 31//31 30//30
f 10//10 9//9 32//32
f 32//32 9//9 14//14
f 33//33 34//34 14//14
f 35//35 36//36 37//37
f 38//38 39//39 40//40
f 38//38 33//33 14//14
f 38//38 41//41 39//39
f 42//42 43//43 44//44
f 45//45 42//42 44//44
f 46//46 47//47 48//48
f 49//49 48//48 47//47
f 49//49 50//50 51//51
f 52//52 47//47 46//46
f 53//53 49//49 47//47
f 54//54 3//3 2//2
f 55//55 42//42 45//45
f 22//22 56//56 57//57
f 56//56 22//22 21//21
f 58//58 19//19 20//20
f 19//19 58//58 21//21
f 59//59 31//31 28//28
f 59//59 60//60 61//61
f 62//62 1//1 3//3
f 62//62 23//23 1//1
f 3//3 63//63 62//62
f 62//62 64//64 65//65
f 62//62 66//66 64//64
f 67//67 65//65 64//64
f 65//65 68//68 69//69
f 70//70 71//71 72//72
f 73//73 74//74 75//75
f 73//73 76//76 77//77
f 73//73 77//77 74//74
f 78//78 79//79 80//80
f 81//81 9//9 12//12
f 13//13 9//9 81//81
f 82//82 83//83 84//84
f 82//82 84//84 85//85
f 86//86 87//87 88//88
f 86//86 24//24 87//87
f 86//86 89//89 24//24
f 90//90 25//25 24//24
f 90//90 24//24 89//89
f 91//91 92//92 93//93
f 92//92 36//36 93//93
f 92//92 94//94 36//36
f 95//95 91//91 93//93
f 96//96 43//43 97//97
f 14//14 34//34 98//98
f 98//98 32//32 14//14
f 99//99 36//36 94//94
f 99//99 37//37 36//36
f 100//100 59//59 61//61
f 31//31 59//59 100//100
f 60//60 101//101 61//61
f 101//101 60//60 102//102
f 103//103 35//35 104//104
f 41//41 103//103 39//39
f 103//103 105//105 39//39
f 106//106 41//41 38//38
f 13//13 106//106 14//14
f 106//106 38//38 14//14
f 107//107 108//108 109//109
f 108//108 107//107 110//110
f 23//23 111//111 2//2
f 111//111 23//23 110//110
f 111//111 110//110 112//112
f 113//113 114//114 115//115
f 116//116 117//117 50//50
f 49//49 116//116 50//50
f 116//116 49//49 53//53
f 52//52 118//118 47//47
f 118//118 53//53 47//47
f 119//119 46//46 85//85
f 119//119 52//52 46//46
f 51//51 120//120 44//44
f 120//120 45//45 44//44
f 121//121 50//50 117//117
f 122//122 123//123 7//7
f 7//7 124//124 5//5
f 123//123 124//124 7//7
f 5//5 124//124 6//6
f 125//125 126//126 127//127
f 126//126 125//125 128//128
f 129//129 128//128 125//125
f 130//130 125//125 127//127
f 131//131 15//15 17//17
f 132//132 131//131 17//17
f 133//133 38//38 40//40
f 33//33 38//38 133//133
f 134//134 135//135 22//22
f 8//8 19//19 135//135
f 135//135 19//19 22//22
f 63//63 66//66 136//136
f 136//136 62//62 63//63
f 62//62 136//136 66//66
f 76//76 137//137 77//77
f 137//137 76//76 138//138
f 139//139 138//138 76//76
f 139//139 76//76 140//140
f 139//139 140//140 141//141
f 142//142 140//140 143//143
f 142//142 143//143 144//144
f 145//145 68//68 65//65
f 67//67 145//145 65//65
f 146//146 143//143 69//69
f 147//147 72//72 148//148
f 147//147 70//70 72//72
f 149//149 129//129 150//150
f 150//150 129//129 125//125
f 150//150 73//73 75//75
f 151//151 87//87 78//78
f 78//78 80//80 151//151
f 88//88 87//87 151//151
f 152//152 153//153 154//154
f 152//152 155//155 153//153
f 152//152 81//81 155//155
f 152//152 132//132 17//17
f 152//152 154//154 132//132
f 156//156 81//81 12//12
f 155//155 81//81 156//156
f 85//85 46//46 157//157
f 157//157 82//82 85//85
f 82//82 157//157 48//48
f 157//157 46//46 48//48
f 158//158 26//26 25//25
f 158//158 159//159 26//26
f 160//160 72//72 26//26
f 159//159 160//160 26//26
f 72//72 160//160 148//148
f 161//161 162//162 163//163
f 43//43 96//96 164//164
f 164//164 96//96 165//165
f 164//164 165//165 166//166
f 164//164 95//95 93//93
f 164//164 166//166 95//95
f 167//167 104//104 35//35
f 35//35 37//37 167//167
f 168//168 169//169 102//102
f 168//168 60//60 134//134
f 168//168 102//102 60//60
f 168//168 134//134 22//22
f 168//168 22//22 57//57
f 169//169 168//168 57//57
f 40//40 39//39 170//170
f 39//39 105//105 170//170
f 171//171 103//103 104//104
f 103//103 171//171 105//105
f 172//172 112//112 110//110
f 172//172 110//110 107//107
f 172//172 173//173 112//112
f 174//174 108//108 175//175
f 174//174 109//109 108//108
f 174//174 175//175 176//176
f 177//177 174//174 176//176
f 178//178 177//177 176//176
f 55//55 179//179 42//42
f 43//43 179//179 97//97
f 42//42 179//179 43//43
f 180//180 116//116 53//53
f 118//118 180//180 53//53
f 116//116 180//180 117//117
f 181//181 120//120 182//182
f 181//181 55//55 45//45
f 120//120 181//181 45//45
f 183//183 50//50 121//121
f 183//183 51//51 50//50
f 183//183 120//120 51//51
f 183//183 182//182 120//120
f 183//183 121//121 182//182
f 184//184 16//16 15//15
f 184//184 185//185 16//16
f 186//186 78//78 16//16
f 186//186 16//16 185//185
f 186//186 79//79 78//78
f 187//187 130//130 127//127
f 188//188 130//130 187//187
f 189//189 122//122 190//190
f 190//190 122//122 7//7
f 190//190 130//130 188//188
f 141//141 140//140 191//191
f 142//142 191//191 140//140
f 144//144 143//143 192//192
f 146//146 192//192 143//143
f 193//193 69//69 68//68
f 193//193 146//146 69//69
f 149//149 150//150 194//194
f 194//194 150//150 75//75
f 195//195 163//163 162//162
f 195//195 114//114 163//163
f 115//115 114//114 195//195
f 28//28 27//27 196//196
f 197//197 54//54 2//2
f 2//2 111//111 197//197
f 198//198 107//107 109//109
f 199//199 175//175 114//114
f 199//199 113//113 178//178
f 199//199 114//114 113//113
f 176//176 175//175 199//199
f 199//199 178//178 176//176
f 189//189 190//190 200//200
f 200//200 190//190 188//188
f 201//201 202//202 71//71
f 201//201 203//203 202//202
f 204//204 82//82 202//202
f 205//205 196//196 27//27
f 206//206 111//111 112//112
f 206//206 197//197 111//111
f 112//112 173//173 206//206
f 198//198 207//207 107//107
f 207//207 172//172 107//107
f 172//172 207//207 173//173
f 109//109 174//174 208//208
f 208//208 198//198 109//109
f 208//208 174//174 177//177
f 71//71 70//70 209//209
f 209//209 201//201 71//71
f 210//210 84//84 83//83
f 83//83 82//82 210//210
f 82//82 204//204 210//210
f 202//202 203//203 211//211
f 211//211 204//204 202//202
f 163//163 196//196 212//212
f 212//212 196//196 205//205
f 161//161 163//163 212//212
f 4//4 11//11 10//10
f 6//6 11//11 4//4
f 84//84 63//63 3//3
f 84//84 3//3 85//85
f 32//32 4//4 10//10
f 32//32 18//18 4//4
f 58//58 33//33 21//21
f 34//34 33//33 58//58
f 86//86 74//74 77//77
f 74//74 86//86 88//88
f 92//92 27//27 29//29
f 92//92 29//29 94//94
f 34//34 58//58 98//98
f 98//98 58//58 20//20
f 32//32 98//98 18//18
f 20//20 18//18 98//98
f 99//99 94//94 29//29
f 29//29 30//30 99//99
f 99//99 31//31 37//37
f 99//99 30//30 31//31
f 119//119 85//85 3//3
f 54//54 119//119 3//3
f 122//122 153//153 155//155
f 122//122 189//189 153//153
f 124//124 11//11 6//6
f 12//12 11//11 124//124
f 56//56 133//133 57//57
f 133//133 40//40 57//57
f 21//21 33//33 133//133
f 133//133 56//56 21//21
f 137//137 86//86 77//77
f 86//86 137//137 89//89
f 137//137 90//90 89//89
f 137//137 138//138 90//90
f 139//139 90//90 138//138
f 25//25 90//90 139//139
f 151//151 74//74 88//88
f 151//151 75//75 74//74
f 12//12 124//124 156//156
f 156//156 124//124 123//123
f 156//156 122//122 155//155
f 122//122 156//156 123//123
f 139//139 158//158 25//25
f 158//158 139//139 141//141
f 160//160 142//142 144//144
f 160//160 144//144 148//148
f 162//162 161//161 166//166
f 162//162 166//166 165//165
f 164//164 93//93 36//36
f 164//164 103//103 41//41
f 81//81 152//152 164//164
f 164//164 49//49 51//51
f 13//13 81//81 164//164
f 71//71 164//164 72//72
f 164//164 78//78 87//87
f 164//164 26//26 72//72
f 164//164 16//16 78//78
f 164//164 36//36 35//35
f 44//44 43//43 164//164
f 164//164 51//51 44//44
f 164//164 87//87 24//24
f 17//17 16//16 164//164
f 164//164 71//71 202//202
f 24//24 26//26 164//164
f 164//164 82//82 48//48
f 164//164 48//48 49//49
f 41//41 106//106 164//164
f 82//82 164//164 202//202
f 35//35 103//103 164//164
f 164//164 106//106 13//13
f 164//164 152//152 17//17
f 167//167 100//100 61//61
f 167//167 61//61 104//104
f 167//167 37//37 31//31
f 31//31 100//100 167//167
f 170//170 57//57 40//40
f 170//170 169//169 57//57
f 102//102 169//169 170//170
f 170//170 105//105 102//102
f 171//171 104//104 61//61
f 101//101 171//171 61//61
f 171//171 102//102 105//105
f 171//171 101//101 102//102
f 179//179 113//113 115//115
f 179//179 115//115 97//97
f 178//178 179//179 55//55
f 179//179 178//178 113//113
f 181//181 178//178 55//55
f 177//177 178//178 181//181
f 126//126 184//184 127//127
f 15//15 127//127 184//184
f 184//184 126//126 128//128
f 128//128 185//185 184//184
f 186//186 129//129 149//149
f 186//186 149//149 79//79
f 186//186 185//185 128//128
f 129//129 186//186 128//128
f 187//187 127//127 15//15
f 15//15 131//131 187//187
f 132//132 188//188 187//187
f 187//187 131//131 132//132
f 191//191 158//158 141//141
f 159//159 158//158 191//191
f 191//191 142//142 160//160
f 191//191 160//160 159//159
f 148//148 144//144 192//192
f 192//192 147//147 148//148
f 192//192 146//146 70//70
f 70//70 147//147 192//192
f 194//194 79//79 149//149
f 194//194 80//80 79//79
f 194//194 75//75 151//151
f 194//194 151//151 80//80
f 97//97 115//115 195//195
f 195//195 96//96 97//97
f 195//195 162//162 165//165
f 195//195 165//165 96//96
f 114//114 175//175 196//196
f 73//73 150//150 196//196
f 60//60 59//59 196//196
f 196//196 7//7 8//8
f 196//196 134//134 60//60
f 196//196 110//110 23//23
f 196//196 69//69 143//143
f 143//143 140//140 196//196
f 196//196 135//135 134//134
f 62//62 196//196 23//23
f 125//125 130//130 196//196
f 196//196 59//59 28//28
f 196//196 62//62 65//65
f 196//196 140//140 76//76
f 65//65 69//69 196//196
f 76//76 73//73 196//196
f 108//108 110//110 196//196
f 196//196 175//175 108//108
f 196//196 163//163 114//114
f 8//8 135//135 196//196
f 196//196 150//150 125//125
f 130//130 190//190 196//196
f 196//196 190//190 7//7
f 197//197 119//119 54//54
f 52//52 119//119 197//197
f 200//200 153//153 189//189
f 154//154 153//153 200//200
f 200//200 188//188 132//132
f 200//200 132//132 154//154
f 201//201 145//145 203//203
f 68//68 145//145 201//201
f 27//27 92//92 205//205
f 205//205 92//92 91//91
f 173//173 180//180 206//206
f 206//206 180//180 118//118
f 52//52 197//197 206//206
f 206//206 118//118 52//52
f 207//207 180//180 173//173
f 207//207 117//117 180//180
f 207//207 121//121 117//117
f 207//207 198//198 121//121
f 177//177 181//181 208//208
f 208//208 181//181 182//182
f 208//208 121//121 198//198
f 121//121 208//208 182//182
f 70//70 146//146 209//209
f 146//146 193//193 209//209
f 201//201 209//209 68//68
f 209//209 193//193 68//68
f 210//210 204//204 64//64
f 66//66 210//210 64//64
f 63//63 84//84 210//210
f 210//210 66//66 63//63
f 211//211 203//203 145//145
f 211//211 145//145 67//67
f 211//211 64//64 204//204
f 211//211 67//67 64//64
f 166//166 161//161 212//212
f 212//212 95//95 166//166
f 212//212 205//205 91//91
f 91//91 95//95 212//212
